<svg width="19px" fill="#fff" height="20px" viewBox="0 0 19 20" version="1.1" xmlns="http://www.w3.org/2000/svg" xmlns:xlink="http://www.w3.org/1999/xlink">
<path class="st0"  d="M18.9,18.9c0-0.2,0-0.4,0-0.5L18,4.6c0-0.6-0.3-0.9-0.9-0.9h-3.4h-0.1C13.3,1.2,11.3,0,9.5,0
	c-2.2,0-3.5,1.3-4,3.8H2C1.2,3.8,1,4,0.9,4.7c-0.1,1.5-0.2,3-0.3,4.5L0.4,13c-0.1,2.1-0.3,4-0.4,6.1c0,0.2,0,0.5,0.2,0.7
	S0.7,20,0.9,20c0.1,0,0.3,0,0.4,0s0.2,0,0.4,0H18c0.2,0,0.6,0,0.8-0.3C19,19.5,19,19.1,18.9,18.9z M8,2c0.8-0.6,2-0.6,2.9-0.1
	c0.7,0.5,1.1,1.1,1.1,2H7C7.1,3,7.4,2.4,8,2L8,2z M5.3,7.2C5.1,7.3,5,7.6,5,7.8c0,0.3,0.1,0.6,0.4,0.8c0.4,0.4,1,0.4,1.5,0
	c0.3-0.2,0.4-0.5,0.5-0.8c0-0.2-0.1-0.4-0.3-0.6C6.9,7,6.9,6.1,7,5.6c0-0.1,0-0.2,0-0.3h5.1c0,0.1,0,0.3,0,0.4c0,0.5,0,1.2-0.2,1.4
	c-0.2,0.2-0.2,0.4-0.2,0.6c0,0.3,0.1,0.6,0.4,0.8c0.4,0.4,1,0.4,1.5,0.1c0.2-0.2,0.4-0.5,0.4-0.8c0-0.2-0.1-0.5-0.2-0.6
	c-0.2-0.2-0.2-1.1-0.2-1.6c0-0.1,0-0.2,0-0.3h3.1l0.8,13.2H1.6L2.4,5.3h3.1c0,0.1,0,0.2,0,0.3C5.5,6.1,5.5,7,5.3,7.2z"/>
</svg>

