<?xml version="1.0" encoding="utf-8"?>
<!-- Generator: Adobe Illustrator 19.2.0, SVG Export Plug-In . SVG Version: 6.00 Build 0)  -->
<svg version="1.1" id="Layer_1" xmlns="http://www.w3.org/2000/svg" xmlns:xlink="http://www.w3.org/1999/xlink" height="20px" width="19px" x="0px" y="0px"
	 viewBox="0 0 19 20" style="enable-background:new 0 0 19 20;" xml:space="preserve">
<g id="Ihko0j.tif">
	<g>
		<path fill="#fff" d="M5.8,4.2c0.4-2.4,1.7-3.7,3.7-3.7c1.6,0,3.6,1.2,3.7,3.7c0.1,0,0.2,0,0.4,0c1.1,0,2.2,0,3.3,0c0.5,0,0.6,0.1,0.7,0.6
			c0.3,4.4,0.6,8.7,0.9,13.1c0,0.3,0,0.6,0.1,0.9c0.1,0.6-0.1,0.8-0.7,0.8c-5.2,0-10.3,0-15.5,0c-0.4,0-0.8,0-1.2,0
			c-0.5,0-0.6-0.2-0.6-0.6c0.2-2.8,0.4-5.6,0.5-8.3c0.1-1.9,0.2-3.8,0.4-5.7c0-0.6,0.2-0.7,0.7-0.7c1.1,0,2.2,0,3.3,0
			C5.5,4.2,5.6,4.2,5.8,4.2z M2.3,5.1c-0.3,4.5-0.6,9-0.9,13.5c5.4,0,10.7,0,16.1,0c-0.3-4.5-0.6-9-0.9-13.5c-1.2,0-2.3,0-3.5,0
			c0.1,0.5-0.1,0.9,0.3,1.3c0.3,0.3,0.1,0.8-0.2,1.1c-0.3,0.3-0.8,0.2-1.1,0c-0.3-0.3-0.4-0.8-0.1-1.1c0.4-0.4,0.2-0.9,0.2-1.3
			c-1,0-1.9,0-2.8,0c-0.9,0-1.8,0-2.7,0c0.1,0.5-0.1,1,0.3,1.4c0.3,0.3,0.1,0.8-0.2,1C6.5,7.8,6,7.8,5.7,7.5c-0.3-0.3-0.4-0.8-0.1-1
			C6,6,5.8,5.6,5.8,5.1C4.6,5.1,3.5,5.1,2.3,5.1z M12.3,4.2c0-1-0.4-1.8-1.3-2.4c-0.9-0.6-2.2-0.6-3.1,0.1C7.2,2.5,6.8,3.2,6.8,4.2
			C8.6,4.2,10.4,4.2,12.3,4.2z"/>
	</g>
</g>
</svg>
