<svg width="150px" height="160px" viewBox="0 0 150 160" version="1.1" xmlns="http://www.w3.org/2000/svg" xmlns:xlink="http://www.w3.org/1999/xlink" xmlns:sketch="http://www.bohemiancoding.com/sketch/ns">
    <g stroke="none" stroke-width="1" fill="none" fill-rule="evenodd" sketch:type="MSPage">
        <g sketch:type="MSArtboardGroup" transform="translate(-245.000000, -385.000000)" fill-opacity="0.2" fill="#000000">
            <path d="M289.01954,416.240088 C292.457091,395.789556 303.132252,385.262808 319.815836,385.003198 C333.132703,384.793836 349.795454,394.859986 350.85797,416.080972 C351.812151,416.135406 352.807999,416.231713 353.803847,416.231713 C363.08732,416.244275 372.370793,416.227526 381.654266,416.244275 C385.958498,416.25265 387.029347,417.291088 387.304351,421.520211 C389.700221,458.083283 392.100257,494.642168 394.496126,531.201053 C394.650295,533.575224 394.716963,535.957769 394.929466,538.327753 C395.366973,543.2059 393.816949,544.981294 388.937709,544.981294 C345.924562,544.989669 302.915582,544.985482 259.902435,544.985482 C256.589885,544.985482 253.273169,545.023167 249.956452,544.977107 C246.131394,544.922673 244.785541,543.54088 245.027211,539.730482 C246.489733,516.461931 247.993922,493.193379 249.481445,469.924828 C250.502294,453.971403 251.539809,438.013791 252.514824,422.056179 C252.806495,417.328773 253.835677,416.244275 258.573248,416.240088 C267.669218,416.231713 276.761022,416.240088 285.856992,416.240088 L289.01954,416.240088 L289.01954,416.240088 Z M260.123272,424.124681 C257.744069,461.722004 255.3607,499.285829 252.973164,536.975271 L386.937679,536.975271 C384.54181,499.193709 382.162607,461.634071 379.787572,424.183302 L350.599633,424.183302 C351.032972,428.123505 349.591284,431.93809 352.849666,435.359074 C355.108034,437.729058 353.858015,442.125671 351.141307,444.252794 C348.4496,446.358981 344.503708,446.212427 341.99117,443.90944 C339.386964,441.522707 338.616119,437.343831 341.003655,434.9236 C344.399539,431.490054 342.328675,427.713154 342.957851,423.957191 L319.745002,423.957191 L296.907158,423.957191 C297.344665,428.144441 295.89881,431.946465 299.203026,435.346512 C301.444727,437.653687 300.348877,441.803253 297.757171,444.03087 C295.05713,446.358981 291.027903,446.312921 288.402864,443.926189 C285.827825,441.585516 284.923645,437.582504 287.219513,435.216707 C290.540396,431.795724 288.907038,427.9937 289.344544,424.124681 L260.123272,424.124681 L260.123272,424.124681 Z M343.045352,416.378267 C343.045352,407.752531 339.516133,401.224607 332.578528,396.60607 C324.824245,391.447377 314.469922,391.677676 306.940643,397.133663 C300.478045,401.819197 297.265497,408.192192 297.24883,416.378267 L343.045352,416.378267 L343.045352,416.378267 Z" id="Imported-Layers-2" sketch:type="MSShapeGroup"></path>
        </g>
    </g>
</svg>