<svg id="Layer_1" data-name="Layer 1" width="18px" height="18px" xmlns="http://www.w3.org/2000/svg" viewBox="0 0 18 18"><defs><style>.cls-1{fill:#fff;}</style></defs><title>catalog</title><g id="rqhJPn.tif"><path class="cls-1" d="M0,4.1c0-1,0-2,0-3.1A1,1,0,0,1,1.1,0H7.2A1,1,0,0,1,8.2,1.1q0,3,0,6A1,1,0,0,1,7.1,8.3h-6A1,1,0,0,1,0,7.1Q0,5.6,0,4.1ZM1,1V7.3H7.3V1H1Z"/><path class="cls-1" d="M13.8,18h-3a1,1,0,0,1-1.1-1.1q0-3,0-6.1a1,1,0,0,1,1.1-1.1h6.1A1,1,0,0,1,18,10.8q0,3,0,6.1A1,1,0,0,1,16.9,18H13.8ZM17,17V10.7H10.7V17H17Z"/><path class="cls-1" d="M13.8,8.3h-3A1,1,0,0,1,9.7,7.1q0-3,0-6A1,1,0,0,1,10.9,0h6A1,1,0,0,1,18,1.1q0,3,0,6a1,1,0,0,1-1.1,1.1H13.8Zm-3.1-.9h6.1C17,7.3,17,7.2,17,7q0-2.9,0-5.7V1H10.7V7.3Z"/><path class="cls-1" d="M0,13.9c0-1,0-2,0-3.1A1,1,0,0,1,1.1,9.8H7.2a1,1,0,0,1,1.1,1.1q0,3,0,6A1,1,0,0,1,7.1,18h-6A1,1,0,0,1,0,16.8Q0,15.4,0,13.9Zm1-3.2V17H7.3V10.7H1Z"/></g></svg>