<svg version="1.1" id="Layer_1" xmlns="http://www.w3.org/2000/svg" xmlns:xlink="http://www.w3.org/1999/xlink" x="0px" y="0px"
	 viewBox="0 0 66.8 58.4" enable-background="new 0 0 66.8 58.4" xml:space="preserve">
<g>
	<defs>
		<rect id="SVGID_1_" y="0" width="66.8" height="58.4"/>
	</defs>
	<clipPath id="SVGID_2_">
		<use xlink:href="#SVGID_1_"  overflow="visible"/>
	</clipPath>
	<path clip-path="url(#SVGID_2_)" d="M2.3,58.4c-0.5,0-1-0.2-1.5-0.5C0.3,57.5,0,56.8,0,56.2V25.5c0-1.1,0.8-2,1.9-2.2l32.3-5.4
		c2.8-1.7,5.8-1.4,7-1.2l22.8-4c0.7-0.1,1.3,0.1,1.8,0.5c0.5,0.4,0.8,1.1,0.8,1.7v25.2c0,0.7-0.3,1.3-0.8,1.7s-1.2,0.6-1.9,0.5
		c0,0-1.2-0.2-2,0.5c-0.8,0.6-1.1,1.9-1.1,3.8c0,1.1-0.8,2-1.9,2.2L2.7,58.4H2.3z M4.6,27.4v26.1l51.8-8.8c0.3-2.4,1.2-4.2,2.7-5.4
		c1-0.8,2.1-1.2,3-1.4V17.6l-20.6,3.6c-0.3,0.1-0.6,0-0.9,0c0,0-2.5-0.5-4.4,0.7c-0.3,0.2-0.6,0.3-0.9,0.4L4.6,27.4z"/>
	<path clip-path="url(#SVGID_2_)" d="M57.6,48.3c-5,0-9.1-4.1-9.1-9.1s4.1-9.1,9.1-9.1s9.1,4.1,9.1,9.1c0,1.2-1,2.2-2.2,2.2
		c-1.2,0-2.2-1-2.2-2.2c0-2.6-2.1-4.6-4.6-4.6s-4.6,2.1-4.6,4.6c0,2.5,2.1,4.6,4.6,4.6c1.2,0,2.2,1,2.2,2.2
		C59.9,47.2,58.8,48.3,57.6,48.3"/>
	<path clip-path="url(#SVGID_2_)" d="M18.3,45.3c-0.7,0-1.4-0.1-2-0.4c-3.2-1.2-4.9-4.8-3.8-8.1c0.6-1.6,1.8-3,3.3-3.7
		s3.2-0.8,4.7-0.3c3.2,1.1,4.9,4.8,3.7,8.1c-0.6,1.6-1.7,2.9-3.2,3.7C20.2,45.1,19.3,45.3,18.3,45.3 M18.5,37
		c-0.3,0-0.5,0.1-0.7,0.2c-0.5,0.2-0.8,0.6-1,1.2c-0.4,1,0.1,2.1,1,2.4c0.4,0.2,0.9,0.1,1.3-0.1c0.5-0.2,0.8-0.6,1-1.1
		c0.4-1-0.1-2.1-1-2.4C18.9,37,18.7,37,18.5,37"/>
	<path clip-path="url(#SVGID_2_)" d="M39,32.9c-4.6,0-8.3-3.7-8.3-8.3c0-2.2,0.9-4.3,2.4-5.9c0.9-0.9,2.3-0.9,3.2,0
		c0.9,0.9,0.9,2.3,0,3.2c-0.7,0.7-1.1,1.7-1.1,2.7c0,2.1,1.7,3.8,3.8,3.8c2.1,0,3.8-1.7,3.8-3.8c0-1.3-0.7-2.5-1.7-3.2
		c-1-0.7-1.3-2.1-0.6-3.1c0.7-1,2.1-1.3,3.1-0.6c2.4,1.5,3.8,4.2,3.8,7C47.3,29.2,43.6,32.9,39,32.9"/>
	<path clip-path="url(#SVGID_2_)" d="M50.7,13.3c-4.4,0-7.8-2.3-7.8-5.4c0-3.1,3.3-5.4,7.8-5.4s7.8,2.3,7.8,5.4
		C58.5,11,55.1,13.3,50.7,13.3 M47.5,7.9c0.4,0.3,1.5,0.9,3.2,0.9c1.7,0,2.8-0.5,3.2-0.9C53.5,7.6,52.4,7,50.7,7
		C49,7,47.9,7.6,47.5,7.9"/>
	<path clip-path="url(#SVGID_2_)" d="M27.7,16.5c-2.3,0-4.4-0.4-6.1-1.2c-1.1-0.5-1.6-1.9-1.1-3c0.5-1.1,1.9-1.6,3-1.1
		s2.6,0.8,4.2,0.8c2.5,0,4.1-0.7,4.8-1.1c-0.5-0.3-1.6-0.8-3.4-1c-1.2-0.1-2.1-1.2-2-2.5c0.1-1.2,1.3-2.1,2.5-2
		c4.6,0.5,7.6,2.6,7.6,5.5C37.2,14.2,33.2,16.5,27.7,16.5"/>
	<path clip-path="url(#SVGID_2_)" d="M2.3,27.7c-0.7,0-1.4-0.3-1.9-1c-0.7-1-0.5-2.4,0.6-3.1l19.4-13.4c0.4-0.3,0.8-0.4,1.3-0.4
		c3.4,0,4.1-2.2,4.2-2.6c0.1-0.6,0.5-1.1,0.9-1.4l7.8-5.4C35,0.1,35.5,0,36,0c2.9,0.1,28.5,1.2,30.8,14.5c0.2,1.2-0.6,2.4-1.8,2.6
		c-1.2,0.2-2.4-0.6-2.6-1.8C61.1,7.4,43.7,4.9,36.7,4.6l-6.5,4.5c-0.8,2.1-3,5-7.6,5.3l-18.8,13C3.2,27.6,2.8,27.7,2.3,27.7"/>
</g>
</svg>
