<?xml version="1.0" encoding="UTF-8" standalone="no"?>
<svg width="227px" height="150px" viewBox="0 0 227 150" version="1.1" xmlns="http://www.w3.org/2000/svg" xmlns:xlink="http://www.w3.org/1999/xlink">
    <!-- Generator: Sketch 3.8.3 (29802) - http://www.bohemiancoding.com/sketch -->
    <title>Imported Layers</title>
    <desc>Created with Sketch.</desc>
    <defs></defs>
    <g id="Page-1" stroke="none" stroke-width="1" fill="none" fill-rule="evenodd" fill-opacity="0.2">
        <g id="Пустое" transform="translate(-692.000000, -250.000000)" fill="#546776">
            <g id="Imported-Layers" transform="translate(692.000000, 250.000000)">
                <path d="M157.684761,12.0337156 C157.684761,18.6990826 157.703964,25.4387615 157.668988,32.1770642 C157.661444,33.5401376 157.658701,34.9630734 157.286997,36.2518349 C156.487353,39.0227064 154.439553,40.4194954 151.604453,40.1938073 C148.600647,39.9550459 146.709894,38.1584862 146.538444,35.1123853 C146.33339,31.4545872 146.430773,27.778211 146.422544,24.1100917 C146.410199,18.4912844 146.380024,12.8724771 146.433517,7.25366972 C146.482208,2.17775229 148.628764,0.104587156 153.552813,0.218807339 C191.363057,1.09472477 223.261015,30.8766055 226.240133,68.0862385 C229.348181,106.902523 203.484583,141.372936 165.908882,148.495183 C118.383586,157.50344 74.7042598,119.179128 77.654574,70.6899083 C79.037148,47.9711009 89.1047009,29.4949541 107.029471,15.4341743 C110.301426,12.8676606 113.753746,13.0162844 115.813205,15.6963303 C117.942616,18.4678899 117.289734,21.6337156 113.920396,24.2862385 C98.9095921,36.0997706 90.5640846,51.4947248 88.9003323,70.5901376 C86.1461571,102.21055 109.734269,132.56078 141.054782,137.580275 C175.968891,143.176376 207.405305,121.207569 214.270855,86.4151376 C221.288653,50.8451835 194.704278,15.1555046 158.721692,11.8520642 C158.509779,11.8327982 158.286894,11.9243119 157.684761,12.0337156" id="Fill-1"></path>
                <path d="M31.2018701,90.7369266 C23.0977644,90.7369266 14.9929728,90.7561927 6.88818127,90.7286697 C2.78503625,90.7149083 0.551383686,88.8461009 0.626821752,85.6052752 C0.698830816,82.4993119 2.82138369,80.7550459 6.8051994,80.7481651 C23.2431541,80.718578 39.680423,80.7165138 56.1176918,80.7495413 C59.9369154,80.756422 62.2542356,82.6995413 62.2960695,85.7016055 C62.3372175,88.7181193 60.0137251,90.7038991 56.2006737,90.7231651 C47.8681964,90.7665138 39.5350332,90.7369266 31.2018701,90.7369266" id="Fill-2"></path>
                <path d="M41.5046526,107.22867 C49.7205438,107.22867 57.936435,107.205963 66.1516405,107.238303 C70.0778489,107.25344 72.1400514,109.056193 72.0687281,112.267431 C72.0015196,115.305275 69.9749789,117.017202 66.2133625,117.022706 C49.5538943,117.047477 32.894426,117.046789 16.2349577,117.022018 C12.694855,117.017202 10.4323988,115.056881 10.4138822,112.154587 C10.3953656,109.227523 12.6228459,107.258945 16.1732356,107.242431 C24.6168127,107.202523 33.0610755,107.229358 41.5046526,107.22867" id="Fill-3"></path>
                <path d="M41.5053384,37.8777523 C33.1742326,37.8770642 24.8438127,37.893578 16.5133927,37.8701835 C12.7298308,37.8591743 10.3926224,35.925 10.4131964,32.9236239 C10.4337704,29.9050459 12.6955408,28.0706422 16.577858,28.0665138 C33.0110121,28.0465596 49.4434804,28.0472477 65.8766344,28.0651376 C69.9838943,28.0699541 71.9884894,29.653211 72.0666707,32.8169725 C72.1475952,36.0949541 69.9914381,37.8639908 65.8121692,37.8729358 C57.7101208,37.8901376 49.6073867,37.8777523 41.5053384,37.8777523" id="Fill-4"></path>
                <path d="M31.1902115,64.2619266 C23.0867915,64.2619266 14.9840574,64.284633 6.88063746,64.2522936 C2.63210272,64.2357798 0.542468278,62.4977064 0.630936556,59.1956422 C0.71460423,56.0738532 2.8323565,54.3860092 6.81754381,54.3818807 C23.2520695,54.366055 39.6865952,54.3646789 56.1211208,54.3832569 C59.9437734,54.3873853 62.2521782,56.2768349 62.2837251,59.296789 C62.3152719,62.3119266 60.0349849,64.2295872 56.1842145,64.2488532 C47.8531088,64.2901376 39.5213172,64.2619266 31.1902115,64.2619266" id="Fill-5"></path>
                <path d="M149.941387,80.6029817 C149.274103,80.3229358 147.964224,79.931422 146.81345,79.2639908 C137.040106,73.5963303 127.283221,67.8997706 117.548967,62.1639908 C113.805181,59.9580275 112.760707,56.9711009 114.513613,53.9298165 C116.241145,50.9332569 119.461665,50.3167431 123.119725,52.4415138 C133.087151,58.2302752 143.030574,64.0603211 152.962338,69.9116972 C155.456595,71.3807339 156.813109,73.5137615 155.932541,76.5130734 C155.169245,79.1091743 153.352559,80.4633028 149.941387,80.6029817" id="Fill-6"></path>
            </g>
        </g>
    </g>
</svg>