<svg width="38px" height="38px" viewBox="0 0 48 48" version="1.1" xmlns="http://www.w3.org/2000/svg" xmlns:xlink="http://www.w3.org/1999/xlink">
    <g id="Page-1" stroke="none" stroke-width="1" fill="none" fill-rule="evenodd">
        <g id="noun_130115_cc" transform="translate(0.000000, -1.000000)" fill="#8D361E">
            <g id="Group">
                <path d="M45.021,25.763 L28.881,25.763 C28.328,25.763 27.881,25.315 27.881,24.763 C27.881,24.211 28.328,23.763 28.881,23.763 L45.022,23.763 C45.562,23.763 46.001,23.324 46.001,22.784 L46.001,16.57 C46.001,16.03 45.562,15.591 45.022,15.591 L2.979,15.591 C2.439,15.59 2,16.029 2,16.569 L2,22.783 C2,23.322 2.439,23.761 2.979,23.761 L19.075,23.761 C19.627,23.761 20.075,24.209 20.075,24.761 C20.075,25.313 19.627,25.761 19.075,25.761 L2.979,25.761 C1.336,25.761 0,24.425 0,22.783 L0,16.569 C0,14.926 1.336,13.59 2.979,13.59 L45.021,13.59 C46.664,13.59 48,14.926 48,16.569 L48,22.783 C48.001,24.426 46.664,25.763 45.021,25.763 L45.021,25.763 Z" id="Shape"></path>
                <path d="M41.809,49 L6.192,49 C4.549,49 3.213,47.664 3.213,46.021 L3.213,26.74 C3.213,25.097 4.549,23.761 6.192,23.761 L19.448,23.761 C20,23.761 20.448,24.209 20.448,24.761 C20.448,25.313 20,25.761 19.448,25.761 L6.192,25.761 C5.652,25.761 5.213,26.2 5.213,26.74 L5.213,46.021 C5.213,46.561 5.652,47 6.192,47 L41.809,47 C42.349,47 42.788,46.562 42.788,46.021 L42.788,26.74 C42.788,26.2 42.349,25.761 41.809,25.761 L28.552,25.761 C27.999,25.761 27.552,25.313 27.552,24.761 C27.552,24.209 27.999,23.761 28.552,23.761 L41.809,23.761 C43.452,23.761 44.788,25.097 44.788,26.74 L44.788,46.021 C44.788,47.664 43.451,49 41.809,49 L41.809,49 Z" id="Shape"></path>
                <g transform="translate(10.000000, 0.000000)" id="Shape">
                    <path d="M14.779,15.272 C14.5,15.272 14.244,15.213 14.01,15.08 C13.621,14.859 13.378,14.463 13.343,13.995 C13.336,13.906 13.342,13.818 13.357,13.734 C13.332,13.602 13.333,13.463 13.365,13.323 C14.329,9.135 15.86,6.096 18.331,3.468 C19.329,2.408 21.746,0.802 23.987,1.019 C25.106,1.125 26.011,1.676 26.606,2.612 C28.073,4.925 27.718,8.631 26.769,11.096 C25.861,13.452 23.048,13.598 20.789,13.715 C19.746,13.769 18.762,13.82 18.087,14.047 C17.974,14.088 17.777,14.19 17.536,14.309 C16.428,14.858 15.52,15.272 14.779,15.272 L14.779,15.272 Z M23.572,2.999 C22.23,2.999 20.545,4.034 19.789,4.838 C17.715,7.044 16.373,9.601 15.488,13.057 C15.917,12.88 16.403,12.64 16.648,12.517 C17.002,12.342 17.294,12.204 17.451,12.151 C18.385,11.838 19.503,11.779 20.686,11.718 C22.897,11.603 24.494,11.44 24.903,10.377 C25.684,8.351 25.955,5.316 24.919,3.683 C24.657,3.271 24.302,3.057 23.8,3.01 C23.726,3.002 23.649,2.999 23.572,2.999 L23.572,2.999 Z"></path>
                    <path d="M13.22,15.272 C12.479,15.272 11.571,14.858 10.462,14.309 C10.221,14.189 10.024,14.087 9.911,14.047 C9.239,13.821 8.254,13.77 7.211,13.716 C4.95,13.599 2.137,13.453 1.23,11.097 C0.28,8.632 -0.075,4.925 1.393,2.613 C1.987,1.676 2.893,1.126 4.011,1.019 C6.262,0.801 8.672,2.408 9.669,3.468 C12.14,6.096 13.671,9.135 14.635,13.323 C14.667,13.462 14.668,13.602 14.643,13.734 C14.66,13.818 14.664,13.906 14.658,13.995 C14.623,14.463 14.38,14.859 13.991,15.08 C13.756,15.213 13.5,15.272 13.22,15.272 L13.22,15.272 Z M4.427,2.999 C4.35,2.999 4.274,3.002 4.199,3.01 C3.698,3.057 3.342,3.272 3.08,3.684 C2.044,5.317 2.314,8.351 3.095,10.377 C3.504,11.44 5.101,11.603 7.313,11.718 C8.497,11.779 9.614,11.837 10.548,12.151 C10.705,12.204 10.995,12.341 11.348,12.516 C11.594,12.638 12.081,12.879 12.509,13.056 C11.624,9.599 10.283,7.043 8.209,4.837 C7.455,4.034 5.769,2.999 4.427,2.999 L4.427,2.999 Z"></path>
                </g>
                <g transform="translate(18.000000, 13.000000)" id="Shape">
                    <path d="M1.448,35.501 C0.896,35.501 0.448,35.054 0.448,34.501 L0.448,1.59 C0.448,1.038 0.896,0.59 1.448,0.59 C2,0.59 2.448,1.038 2.448,1.59 L2.448,34.501 C2.448,35.054 2,35.501 1.448,35.501 L1.448,35.501 Z"></path>
                    <path d="M10.552,35.501 C9.999,35.501 9.552,35.054 9.552,34.501 L9.552,1.59 C9.552,1.038 9.999,0.59 10.552,0.59 C11.105,0.59 11.552,1.038 11.552,1.59 L11.552,34.501 C11.552,35.054 11.104,35.501 10.552,35.501 L10.552,35.501 Z"></path>
                </g>
            </g>
        </g>
    </g>
</svg>