<svg version="1.1" id="Layer_1" xmlns="http://www.w3.org/2000/svg" xmlns:xlink="http://www.w3.org/1999/xlink" height="18px" width="18px" x="0px" y="0px"
	 viewBox="0 0 18 18" style="enable-background:new 0 0 18 18;" xml:space="preserve">
<style type="text/css">
	.st0{fill:#fff;}
</style>
<path class="st0" d="M15,1v14.7l-0.5-0.4l-0.8-0.7l-0.7,0.8l-0.9,1.1l-0.9-1.1l-0.8-0.9l-0.8,0.9l-0.8,1l-0.8-1l-0.8-1l-0.8,0.9
	l-0.9,1.1l-0.8-1l-0.7-0.9l-0.8,0.8L3,15.7V1H15 M16,0H2v18l2.1-2l1.6,2l1.7-2L9,18l1.6-2l1.7,2l1.6-2l2.1,2V0L16,0z"/>
<path class="st0" d="M16.5,1C16.8,1,17,1.2,17,1.5v1C17,2.8,16.8,3,16.5,3H16V1H16.5 M2,1l0,2H1.5C1.2,3,1,2.8,1,2.5v-1
	C1,1.2,1.2,1,1.5,1H2 M16.5,0h-15C0.7,0,0,0.7,0,1.5v1C0,3.3,0.7,4,1.5,4H3l0-3l12,0v3h1.5C17.3,4,18,3.3,18,2.5v-1
	C18,0.7,17.3,0,16.5,0L16.5,0z"/>
<path class="st0" d="M12.3,4.3H5.2C4.9,4.3,4.7,4,4.7,3.8s0.2-0.5,0.5-0.5h7.1c0.3,0,0.5,0.2,0.5,0.5S12.6,4.3,12.3,4.3z"/>
<path class="st0" d="M9.3,6.7H5.2c-0.3,0-0.5-0.2-0.5-0.5s0.2-0.5,0.5-0.5h4.1c0.3,0,0.5,0.2,0.5,0.5S9.6,6.7,9.3,6.7z"/>
<path class="st0" d="M11.3,9.2H5.2C4.9,9.2,4.7,9,4.7,8.7s0.2-0.5,0.5-0.5h6.1c0.3,0,0.5,0.2,0.5,0.5S11.6,9.2,11.3,9.2z"/>
<path class="st0" d="M9.3,11.6H5.2c-0.3,0-0.5-0.2-0.5-0.5s0.2-0.5,0.5-0.5h4.1c0.3,0,0.5,0.2,0.5,0.5S9.6,11.6,9.3,11.6z"/>
</svg>
