<svg version="1.1" id="Layer_1" xmlns="http://www.w3.org/2000/svg" xmlns:xlink="http://www.w3.org/1999/xlink" x="0px" y="0px"
	 viewBox="0 0 320.1 94.8" enable-background="new 0 0 320.1 94.8" xml:space="preserve">
<g>
	<g>
		<g>
			<path fill="#FFFFFF" d="M166.5,45.6c-2.5,2.2-6,6.2-9.8,9.4c0.6,1.7,0.8,3.6,0.7,5.8c-1.4,18.1-18.1,34.1-33.2,34.1
				c-8.6,0-14.6-6.2-13.7-23c1.2-25.4,13.1-63.6,35.8-63.6c7.3,0,11.6,4,11.3,11.6c-0.6,9.6-11.9,22.9-32.9,47c-0.1,1.1-0.2,2-0.2,3
				c-0.6,11.8,3,15,7,15c10.2,0,13.9-16.8,12.6-24.7c-1.9,0.1-3.7-0.1-4.7-0.6c-2.2-6,0.7-11.4,7.6-11.4c2.5,0,4.9,0.8,6.7,2.3
				c4.3-3,8.4-7.7,13-11.4C168.8,40.9,168.2,44.1,166.5,45.6z M125.9,57.9c15.7-19.7,22.4-30.7,22.8-36.8c0.1-3.5-0.4-5.5-2.9-5.5
				C137.3,15.6,129.3,39.9,125.9,57.9z"/>
			<path fill="#FFFFFF" d="M170.1,47.1c0.5-1.9-0.1-3-1.2-3c-0.6,0-1.3,0.5-2.4,1.4c-1.6-1-2.4-4.7,0-6.6c4.1-3.2,8.4-5.8,13.4-5.8
				c4.3,0,6.8,2,5.8,6.6l-7.3,34.1c-1.1,4.9,0.5,7.1,4.1,7.1c4.2,0,7.8-2.4,11-6.2l7.2-34c1.2-5.5,5.8-7.6,10.1-7.6
				c2.2,0,4.2,0.6,5.6,1.6L208,74.5c-1.4,6.7,0.5,8.9,3.6,8.9c4.4,0,9.6-3,12.6-6c1.3,0.6,2,1.7,2,2.9c0,0.8-0.4,1.8-1.1,2.6
				c-5.6,6.4-14.3,11.9-20.8,11.9c-5.9,0-11.8-3-11.2-13.6c-4.8,7.8-10.7,13.6-17.5,13.6c-13.3,0-13.3-14-11.3-23L170.1,47.1z"/>
			<path fill="#FFFFFF" d="M270.7,85.2c2.3,0,4.5-3.2,4.5-1.2c0,8.4-8.4,10.7-16.6,10.7c-12,0-15.1-19.2-16.9-28.6l-2.6,0.7
				l-4.3,20.3c-1.2,5.5-5.8,7.6-10.1,7.6c-2.2,0-3.6-0.2-5-1.2l9.7-46.4c0.4-1.9-0.1-3-1.2-3c-0.6,0-1.3,0.5-2.4,1.4
				c-1.6-1-2.4-4.7,0-6.6c4.1-3.2,8.4-5.8,13.4-5.8c4.3,0,6.7,2,5.8,6.6l-4.4,20.6l1.1-0.4c5.8-1.8,13.8-12.7,16.7-25.6
				c1.9-1,4-1.3,5.8-1.3c4.1,0,6.2,2.6,6.2,5.6c0,7.2-9.4,17.8-16.8,22.8c1.6,6.8,1.3,22.9,7.8,22.9
				C264.4,84.6,269.7,89.3,270.7,85.2z"/>
			<path fill="#FFFFFF" d="M110.5,77.4c-2.3,3.2-6.1,6-9.4,6c-8.9,0-12.5-20.8-14.3-39c13.3-10.7,22.3-22.6,22.3-33.8
				c0-4.4-4.3-7.2-8.3-7.2c-1.4,0-3.1,0.2-4.4,1c-2.9,13.6-7.9,32.3-24.6,42l-2.9,1.1l7.8-36.7h1.1c2.8,0,4.2-2.6,4.2-4.8
				c0-1.2-0.5-2.5-1.7-3.2c-3.5,2-9.3,0-15.9-1.3L63,7.7h0L43.7,93.1c1.3,1,3.6,1.6,6.4,1.6c4.4,0,9.1-2,10.3-7.7l7.1-33.5l6.1-0.8
				c1.4,18.8,6.1,42,19.9,42c11.4,0,18.7-10.7,18.7-14.6C112.3,79,111.8,78,110.5,77.4z"/>
		</g>
		<path fill="#FFFFFF" d="M6.4,37.3c1.7,1.4,4.3,0.9,5.3-1.1C20.4,18.9,38.4,7,59.1,7c6.2,0,12.1,1.1,17.6,3l0.9-4.2
			C69.8,2.1,61,0,51.8,0C30.2,0,11.2,11.4,0.5,28.5C-0.4,30-0.1,31.9,1.3,33L6.4,37.3z"/>
		<g>
			<path fill="#FFFFFF" d="M307.3,43.1c-4.8,24.9-28.1,41.5-46,41.5l-2.6,10.2c18.5,0,54.9-12.8,61.2-40.6c0.9-4.1-1.4-8.3-5.3-9.8
				l-5.7-2.1C308.2,42,307.4,42.4,307.3,43.1z"/>
		</g>
	</g>
</g>
</svg>
