<svg id="Layer_1" data-name="Layer 1" xmlns="http://www.w3.org/2000/svg" height="70px" width="70px" viewBox="0 0 70 70"><title>lock</title><g id="urVUqf.tif"><path d="M66.2,17.8q0-7.1,0-14.3c0-.4,0-0.9,0-1.3A1.5,1.5,0,0,1,67.9.7a1.6,1.6,0,0,1,1.7,1.4,4.2,4.2,0,0,1,0,.9q0,9.9,0,19.8c0,1.8-.5,2.4-2.4,2.4H49.1a2.1,2.1,0,0,1-1.2-.2,2.8,2.8,0,0,1-1-1.6A2.4,2.4,0,0,1,47.9,22a2.6,2.6,0,0,1,1.4-.2H64.1l-0.6-1.4c-6.2-11-15.6-17.1-28.3-17S12.8,9.9,7.1,21.5c-4.9,10-5.1,20.3.7,30.1S21.3,65.3,31.5,66.4c12.1,1.3,22-3,29.5-12.7a29.9,29.9,0,0,0,5.5-12.9V40a1.7,1.7,0,1,1,3.3.7,35,35,0,0,1-7.4,16.4C46.5,77,13.8,73.2,3.2,50.1-2.3,37.8-.5,25.8,7,14.9S23.8-.3,36,0,58.2,6.1,65.1,16.5L66,17.9h0.2Z"/><path d="M42.5,31c3.9,1,5.1,2.6,5.1,6.4s0,4.9,0,7.4a5.3,5.3,0,0,1-5.7,5.7H29.6a5.3,5.3,0,0,1-5.7-5.7c0-2.5,0-5,0-7.5s1.2-5.4,5-6.3c0-1.2,0-2.4,0-3.6,0.1-4.4,2.8-7.3,6.7-7.4s6.7,2.8,6.8,7.2C42.6,28.6,42.5,29.8,42.5,31ZM35.7,47.2H42A1.9,1.9,0,0,0,44.2,45q0-4.2,0-8.3A1.9,1.9,0,0,0,42,34.5H29.5c-1.5,0-2.2.7-2.2,2.3s0,5.4,0,8.1,0.7,2.3,2.3,2.3h6.1ZM32.5,31.1H39a45.4,45.4,0,0,0,0-4.7,3,3,0,0,0-3.2-2.8,3,3,0,0,0-3.3,2.8A43.3,43.3,0,0,0,32.5,31.1Z"/></g></svg>