<svg version="1.1" id="Layer_1" xmlns="http://www.w3.org/2000/svg" xmlns:xlink="http://www.w3.org/1999/xlink" x="0px" y="0px"
	 viewBox="0 0 98.1 686.2" style="enable-background:new 0 0 98.1 686.2;" xml:space="preserve">
<style type="text/css">
	.st0{fill:rgba(255,255,255, 1);}
</style>
<g>
	<path class="st0" d="M45,56.8c-2.6,0-4.7-2.1-4.7-4.7s2.1-4.7,4.7-4.7c2.6,0,4.7,2.1,4.7,4.7S47.6,56.8,45,56.8z M45,48.4
		c-2,0-3.6,1.6-3.6,3.6s1.6,3.6,3.6,3.6s3.6-1.6,3.6-3.6C48.7,50.1,47,48.4,45,48.4z"/>
	<path class="st0" d="M28,70.5c-1.6,0-3.2-0.4-4.6-1.3l0,0c-4.3-2.5-5.8-8.1-3.3-12.5c2.5-4.3,8.1-5.8,12.5-3.3
		c4.3,2.5,5.8,8.1,3.3,12.5c-1.2,2.1-3.2,3.6-5.6,4.2C29.5,70.4,28.8,70.5,28,70.5z M23.9,68.3c3.8,2.2,8.8,0.9,11-2.9
		c2.2-3.8,0.9-8.8-2.9-11c-3.8-2.2-8.8-0.9-11,2.9C18.8,61.1,20.1,66,23.9,68.3L23.9,68.3z"/>
	<path class="st0" d="M28,66c-0.8,0-1.6-0.2-2.4-0.6c-2.2-1.3-3-4.2-1.7-6.4c0.6-1.1,1.7-1.9,2.9-2.2s2.5-0.1,3.6,0.5
		c2.2,1.3,3,4.2,1.7,6.4C31.2,65.2,29.6,66,28,66z M28,57.7c-0.3,0-0.6,0-0.9,0.1c-0.9,0.2-1.7,0.8-2.2,1.7
		c-0.5,0.8-0.6,1.8-0.4,2.8c0.2,0.9,0.8,1.7,1.7,2.2c1.7,1,4,0.4,5-1.3s0.4-4-1.3-5C29.3,57.9,28.6,57.7,28,57.7z"/>
	<path class="st0" d="M0.1,18.2c-0.1,0-0.2,0-0.3-0.1c-0.2-0.2-0.3-0.5-0.1-0.7l3-4.4c0.2-0.2,0.5-0.3,0.7-0.1s0.3,0.5,0.1,0.7
		l-3,4.4C0.4,18.2,0.3,18.2,0.1,18.2z"/>
	<path class="st0" d="M3.6,20.6c-0.1,0-0.2,0-0.3-0.1C3.1,20.3,3,20,3.2,19.8l3-4.4c0.2-0.2,0.5-0.3,0.7-0.1S7.2,15.8,7,16l-3,4.4
		C3.9,20.5,3.7,20.6,3.6,20.6z"/>
	<path class="st0" d="M7,23c-0.1,0-0.2,0-0.3-0.1c-0.2-0.2-0.3-0.5-0.1-0.7l3-4.4c0.2-0.2,0.5-0.3,0.7-0.1c0.2,0.2,0.3,0.5,0.1,0.7
		l-3,4.4C7.3,22.9,7.2,23,7,23z"/>
	<path class="st0" d="M10.5,25.4c-0.1,0-0.2,0-0.3-0.1c-0.2-0.2-0.3-0.5-0.1-0.7l3-4.4c0.2-0.2,0.5-0.3,0.7-0.1
		c0.2,0.2,0.3,0.5,0.1,0.7l-3,4.4C10.8,25.3,10.6,25.4,10.5,25.4z"/>
	<path class="st0" d="M13.9,27.8c-0.1,0-0.2,0-0.3-0.1c-0.2-0.2-0.3-0.5-0.1-0.7l3-4.4c0.2-0.2,0.5-0.3,0.7-0.1
		c0.2,0.2,0.3,0.5,0.1,0.7l-3,4.4C14.2,27.7,14.1,27.8,13.9,27.8z"/>
	<path class="st0" d="M17.4,30.2c-0.1,0-0.2,0-0.3-0.1c-0.2-0.2-0.3-0.5-0.1-0.7l3-4.4c0.2-0.2,0.5-0.3,0.7-0.1
		c0.2,0.2,0.3,0.5,0.1,0.7l-3,4.4C17.7,30.1,17.5,30.2,17.4,30.2z"/>
	<g>
		<path class="st0" d="M24.2,54.2l-0.9-12l1,0.8c0.8,0.6,1.7,0.9,2.8,0.9H29c0.1,0,0.2,0,0.3,0.1H30l-0.2,0.7
			c-0.2,0.6-0.3,1.3-0.2,2l0.7,6.9l-0.7-0.1c-1.5-0.3-3.1-0.1-4.6,0.5L24.2,54.2z M24.5,44.4l0.6,8.2c1.2-0.4,2.5-0.5,3.8-0.4
			l-0.5-5.5c-0.1-0.6,0-1.2,0.1-1.8h-1.4C26.2,44.9,25.3,44.8,24.5,44.4z"/>
		<path class="st0" d="M31.8,40.3L22.7,34L20.3,3.4c-0.1-0.9,0.5-1.7,1.3-2l0.8-0.3C23,0.9,23.6,1,24.1,1.3s0.8,0.8,0.9,1.4
			l6.6,35.8c0,0.2,0.1,0.5,0.1,0.8L31.8,40.3z M23.7,33.4l6.8,4.7L24,2.8c0-0.3-0.2-0.5-0.4-0.6c-0.2-0.1-0.5-0.2-0.8-0.1L22,2.4
			c-0.4,0.1-0.7,0.5-0.6,0.9L23.7,33.4z"/>
	</g>
	<path class="st0" d="M37.2,50l-5.6-4.1c-0.8-0.6-1.8-0.9-2.7-0.9H27c-1.4,0-2.7-0.5-3.6-1.3L-4.2,19.9c-0.4-0.4-0.7-0.9-0.7-1.5
		s0.2-1.1,0.7-1.5l0.6-0.5c0.7-0.6,1.7-0.7,2.4-0.1l41.9,29l-0.6,0.4c-1.3,1-2.2,2.2-2.7,3.7L37.2,50z M-2.2,16.9
		c-0.2,0-0.4,0.1-0.6,0.2l-0.6,0.5c-0.2,0.2-0.3,0.4-0.3,0.7c0,0.3,0.1,0.5,0.3,0.7l27.6,23.7c0.8,0.7,1.8,1,2.9,1H29
		c1.1,0,2.3,0.4,3.3,1.1l4.5,3.3c0.5-1.1,1.3-2.2,2.2-3l-40.7-28C-1.9,17-2.1,16.9-2.2,16.9z"/>
	<path class="st0" d="M45,61.2c-5,0-9.1-4.1-9.1-9.1S40,43,45,43c3.8,0,7.2,2.3,8.5,5.8c0.7,0.3,3.1,1.2,6.2,1.2
		c1.7,0,3.2,1.5,3.2,3.2c0,1.9-1.3,3.2-3.2,3.2c-1.8,0-4.6-1.3-5.9-1.9C52.8,58.4,49.2,61.2,45,61.2z M45,44c-4.4,0-8.1,3.6-8.1,8.1
		c0,4.4,3.6,8.1,8.1,8.1c3.9,0,7.2-2.8,7.9-6.6l0.1-0.7l0.6,0.3c0,0,4,2.1,6,2.1c1.3,0,2.1-0.8,2.1-2.1c0-1.1-1-2.1-2.1-2.1
		c-3.8,0-6.7-1.3-6.8-1.3l-0.2-0.1l-0.1-0.2C51.5,46.1,48.4,44,45,44z"/>
</g>
<g>
	<path class="st0" d="M9.3,133.8l21.6-20.5l2.4,2.5l-21.6,20.5L9.3,133.8z M30.9,114.7l-20.2,19.2l1,1.1l20.2-19.2L30.9,114.7z"/>
	<path class="st0" d="M14.4,139.8l-1.6-3l26.3-14l1.6,3L14.4,139.8z M14.1,137.1l0.7,1.3l24.6-13.1l-0.7-1.3L14.1,137.1z"/>
	<path class="st0" d="M-1.5,139.9l-0.1-1.1c-0.2-1.7,0.4-3.3,1.6-4.5l23.7-22.4c2.2-2,5.6-2,7.6,0.2l1,1l-0.4,0.3L6.1,138l-0.3-0.1
		c-1.8-0.8-3.8-0.7-5.4,0.3c-0.4,0.3-0.8,0.6-1.1,1L-1.5,139.9z M30.9,113.1l-0.3-0.3c-1.7-1.8-4.5-1.8-6.2-0.2L0.7,135
		c-0.7,0.7-1.2,1.6-1.3,2.6c0.2-0.1,0.3-0.2,0.5-0.3c1.8-1.2,4.1-1.3,6-0.5L30.9,113.1z"/>
	<path class="st0" d="M0.6,144.6c-1-1.5-0.5-3.5,1-4.5s3.5-0.5,4.5,1s0.5,3.5-1,4.5S1.6,146.1,0.6,144.6z M5.3,141.6
		c-0.7-1.1-2.1-1.4-3.2-0.7s-1.4,2.1-0.7,3.2c0.7,1.1,2.1,1.4,3.2,0.7C5.7,144.1,6,142.7,5.3,141.6z"/>
	<path class="st0" d="M-9.2,159.8c-3.1-4.8,4.5-10.7,4.8-11l0.6,0.8c-0.1,0.1-7.2,5.6-4.6,9.7c0.5,0.7,1.1,1.1,1.8,1.2
		c2.6,0.4,6.4-3.1,8.7-5.1c0.4-0.3,0.7-0.6,1-0.8c2.4-2,5.9-4.4,9.3-3.9c1.9,0.3,3.5,1.4,4.8,3.4c1.2,1.8,1.5,3.7,1,5.5
		c-1,3.5-4.9,5.5-5,5.6l-0.4-0.9c0,0,3.7-1.9,4.5-5c0.4-1.5,0.1-3.1-0.9-4.7c-1.1-1.7-2.5-2.7-4.1-3c-3.2-0.5-6.7,2.1-8.5,3.6
		c-0.3,0.2-0.6,0.5-0.9,0.8c-2.6,2.3-6.4,5.8-9.5,5.4C-7.7,161.4-8.5,160.8-9.2,159.8z"/>
	<path class="st0" d="M9.9,172l-4.8-7.5l2.9-1.9c1.6-1,3.7-0.5,4.7,1.1l1.1,1.7c1,1.6,0.5,3.7-1.1,4.7L9.9,172z M6.5,164.8l3.7,5.8
		l2.1-1.3c1.1-0.7,1.5-2.2,0.8-3.4l-1.1-1.7c-0.7-1.1-2.2-1.5-3.4-0.8L6.5,164.8z"/>
	<path class="st0" d="M3.1,169.3c-0.1-0.2-0.1-0.5,0.1-0.7l3.6-2.3c0.2-0.1,0.5-0.1,0.7,0.1c0.1,0.2,0.1,0.5-0.1,0.7l-3.6,2.3
		C3.6,169.6,3.3,169.6,3.1,169.3z"/>
	<path class="st0" d="M4.7,171.8c-0.1-0.2-0.1-0.5,0.1-0.7l3.6-2.3c0.2-0.1,0.5-0.1,0.7,0.1c0.1,0.2,0.1,0.5-0.1,0.7l-3.6,2.3
		C5.2,172.1,4.8,172.1,4.7,171.8z"/>
	<path class="st0" d="M5.4,148.1l0.9-0.5c0,0,0,0,0.1,0c1.8-1.2,2.8-3.3,2.5-5.5v-0.3l0.3-0.2l32.1-17.1l0.7,1.2
		c0.7,1.3,0.8,2.7,0.4,4.1c-0.4,1.4-1.4,2.5-2.6,3.2L11,148.3c-1.4,0.8-3.1,0.8-4.7,0.2L5.4,148.1z M9.9,142.3
		c0.2,2.2-0.7,4.3-2.3,5.6c1,0.2,2,0,2.9-0.4l28.8-15.3c1-0.6,1.8-1.5,2.1-2.6s0.2-2.3-0.3-3.4l-0.2-0.4L9.9,142.3z"/>
	<path class="st0" d="M-4.8,149.1c-1.1-1.8-0.6-4.1,1.2-5.2c0.3-0.2,0.6-0.3,0.9-0.4l0.5-0.2l0.1,0.5c0.1,0.7,0.4,1.4,0.8,2
		c0.7,1.1,1.7,1.8,2.8,2.3l0.5,0.2l-0.2,0.5c-0.3,0.6-0.8,1.1-1.4,1.5C-1.3,151.4-3.7,150.9-4.8,149.1z M-2.9,144.6
		c-0.1,0-0.1,0.1-0.2,0.1c-1.3,0.8-1.7,2.6-0.9,3.9c0.8,1.3,2.6,1.7,3.9,0.9c0.3-0.2,0.5-0.4,0.7-0.7c-1.1-0.5-2.1-1.4-2.8-2.4
		C-2.5,145.8-2.7,145.2-2.9,144.6z"/>
	<path class="st0" d="M-2.1,146.4c-1.9-3.1-1-7.1,2-9.1c3.1-1.9,7.1-1,9.1,2c1.9,3.1,1,7.1-2,9.1C3.9,150.3-0.2,149.4-2.1,146.4z
		 M8.1,139.8c-1.7-2.6-5.1-3.4-7.7-1.7s-3.4,5.1-1.7,7.7c1.7,2.6,5.1,3.4,7.7,1.7C9,145.9,9.8,142.4,8.1,139.8z"/>
</g>
<g>
	<path class="st0" d="M56.8,242c-9.2,9.2-24.4,8.8-34-0.8s-9.9-24.8-0.8-34c9.2-9.2,24.4-8.8,34,0.8S65.9,232.8,56.8,242z
		 M22.7,207.9c-8.8,8.8-8.4,23.4,0.8,32.6s23.8,9.5,32.6,0.8c8.8-8.8,8.4-23.4-0.8-32.6S31.5,199.2,22.7,207.9z"/>
	<path class="st0" d="M54.1,239.4c-7.8,7.8-20.7,7.5-28.8-0.7c-8.1-8.1-8.4-21.1-0.7-28.8c7.8-7.8,20.7-7.5,28.8,0.7
		S61.9,231.6,54.1,239.4z M25.4,210.6C18,218,18.3,230.2,26,238s20,8,27.4,0.7c7.4-7.4,7.1-19.7-0.7-27.4S32.7,203.2,25.4,210.6z"/>
	<path class="st0" d="M49.9,225.1c-0.1,0.1-0.2,0.1-0.4,0.1H30.1c-0.3,0-0.5-0.2-0.5-0.5s0.2-0.5,0.5-0.5h19.3
		c0.3,0,0.5,0.2,0.5,0.5C50,224.9,49.9,225,49.9,225.1z"/>
	<path class="st0" d="M46.9,220.1c-0.1,0.1-0.2,0.1-0.4,0.1H35c-0.3,0-0.5-0.2-0.5-0.5s0.2-0.5,0.5-0.5h11.5c0.3,0,0.5,0.2,0.5,0.5
		C47,219.9,47,220,46.9,220.1z"/>
	<path class="st0" d="M45.4,229.8c-0.1,0.1-0.2,0.1-0.4,0.1H33.1c-0.3,0-0.5-0.2-0.5-0.5s0.2-0.5,0.5-0.5H45c0.3,0,0.5,0.2,0.5,0.5
		C45.6,229.6,45.5,229.7,45.4,229.8z"/>
	<g>
		<path class="st0" d="M27.1,243.5l-3.3,3.3c-1.2,1.2-3.1,1.2-4.3,0s-1.2-3.1,0-4.3l2.7-2.7l0.7,0.7l-0.4-0.4l0.4-0.3
			c0.1,0.1,0.4,0.4,0.6,0.7c1,1,1.9,1.7,3.1,2.6L27.1,243.5z M20.2,243.2c-0.8,0.8-0.8,2.1,0,2.9c0.8,0.8,2.1,0.8,2.9,0l2.5-2.5
			c-1-0.8-1.8-1.4-2.7-2.3c-0.1-0.1-0.2-0.2-0.3-0.3L20.2,243.2z"/>
		<path class="st0" d="M61.4,209.2l-3.1,3.1l-0.4-0.5c-0.9-1.2-1.6-2.1-2.6-3.1c-0.2-0.2-0.6-0.6-0.7-0.6l0.3-0.4l-0.4-0.4l2.5-2.5
			c1.2-1.2,3.1-1.2,4.3,0S62.6,208,61.4,209.2z M58.4,210.8l2.3-2.3c0.8-0.8,0.8-2.1,0-2.9c-0.8-0.8-2.1-0.8-2.9,0l-2.1,2.1
			c0.1,0.1,0.2,0.2,0.3,0.3C57,209,57.7,209.8,58.4,210.8z"/>
	</g>
	<path class="st0" d="M67.6,247.9l-5,5l-8-8c-0.6-0.6-0.6-1.5,0-2.1l2.9-2.9c0.6-0.6,1.5-0.6,2.1,0L67.6,247.9z M62.7,251.4l3.6-3.6
		l-7.3-7.3c-0.2-0.2-0.5-0.2-0.7,0l-2.9,2.9c-0.2,0.2-0.2,0.5,0,0.7L62.7,251.4z"/>
	<path class="st0" d="M63.9,245.5l-5-5c-0.2-0.2-0.7-0.2-0.8-0.1l-2.9,2.9c-0.1,0.1-0.1,0.5,0.2,0.7l5,5l-0.4,0.4
		c-11.1,8.9-27.7,8.1-37.7-1.9c-0.2-0.2-0.2-0.5,0-0.7s0.5-0.2,0.7,0c9.5,9.5,25.2,10.4,35.9,2.2l-4.2-4.2c-0.6-0.6-0.8-1.6-0.2-2.2
		l2.9-2.9c0.6-0.6,1.7-0.5,2.3,0.1l4.2,4.2c8-10.6,7-26.6-2.3-36c-0.2-0.2-0.2-0.5,0-0.7s0.5-0.2,0.7,0c9.9,9.9,10.8,26.8,2.1,37.8
		L63.9,245.5z"/>
	<path class="st0" d="M76.6,245l-16.8,16.8c-0.7,0.7-1.9,0.7-2.6,0l-1.1-1.1c-0.7-0.7-0.7-1.9,0-2.6l16.8-16.8
		c0.7-0.7,1.9-0.7,2.6,0l1.1,1.1C77.3,243.1,77.3,244.3,76.6,245z M56.8,258.8c-0.3,0.3-0.3,0.9,0,1.2l1.1,1.1
		c0.3,0.3,0.9,0.3,1.2,0l16.8-16.8c0.3-0.3,0.3-0.9,0-1.2l-1.1-1.1c-0.3-0.3-0.9-0.3-1.2,0L56.8,258.8z"/>
</g>
<g>
	<path class="st0" d="M-3.9,361l-11.7-15.6c-1.4-1.8-1-4.4,0.8-5.8l32.5-24.4c1.8-1.4,4.4-1,5.8,0.8l11.7,15.6
		c1.4,1.8,1,4.4-0.8,5.8L1.9,361.8C0.1,363.2-2.6,362.8-3.9,361z M22.7,316.7c-1-1.4-3-1.6-4.3-0.6l-32.5,24.4c-1.4,1-1.6,3-0.6,4.3
		L-3,360.4c1,1.4,3,1.6,4.3,0.6l32.5-24.4c1.4-1,1.6-3,0.6-4.3L22.7,316.7z"/>
	<path class="st0" d="M3.5,352.6l-8.9-11.9L14.1,326l8.9,11.9L3.5,352.6z M-4,340.9l7.6,10.2l17.8-13.4l-7.6-10.2L-4,340.9z"/>
	<path class="st0" d="M29.4,333.6L20,321.1c-0.2-0.2-0.1-0.6,0.1-0.8c0.2-0.2,0.6-0.1,0.8,0.1l9.4,12.5c0.2,0.2,0.1,0.6-0.1,0.8
		S29.6,333.8,29.4,333.6z"/>
	<path class="st0" d="M33.6,331.2l-10-13.4l2.1-1.6c1.4-1,3.3-0.7,4.3,0.6l6.4,8.5c1,1.4,0.7,3.3-0.6,4.3L33.6,331.2z M25,318
		l8.7,11.7l1.3-1c0.9-0.7,1.1-1.9,0.4-2.8l-6.4-8.5c-0.7-0.9-1.9-1.1-2.8-0.4L25,318z"/>
	<path class="st0" d="M35.2,325.6l-5.9-7.8l6.4-4.8c1.4-1,3.3-0.7,4.3,0.6l2.2,2.9c1,1.4,0.7,3.3-0.6,4.3L35.2,325.6z M30.8,318
		l4.6,6.1l5.5-4.2c0.9-0.7,1.1-1.9,0.4-2.8l-2.2-2.9c-0.7-0.9-1.9-1.1-2.8-0.4L30.8,318z"/>
	<g>
		<path class="st0" d="M44.5,323.1c-0.1-0.2-0.1-0.4,0-0.6c0.1-0.3,0.5-0.4,0.7-0.2l2.6,1.4c0.3,0.1,0.4,0.5,0.2,0.7
			c-0.1,0.3-0.5,0.4-0.7,0.2l-2.6-1.4C44.6,323.2,44.5,323.2,44.5,323.1z"/>
		<path class="st0" d="M50,326.2c-0.1-0.2-0.1-0.4,0-0.6c0.1-0.3,0.5-0.4,0.7-0.2l2.9,1.6c0.3,0.1,0.4,0.5,0.2,0.7
			c-0.1,0.3-0.5,0.4-0.7,0.2l-2.9-1.6C50.1,326.3,50,326.2,50,326.2z"/>
		<path class="st0" d="M55.8,329.4c-0.1-0.2-0.1-0.4,0-0.6c0.1-0.3,0.5-0.4,0.7-0.2l2.6,1.4c0.3,0.1,0.4,0.5,0.2,0.7
			c-0.1,0.3-0.5,0.4-0.7,0.2l-2.6-1.4C55.9,329.5,55.8,329.5,55.8,329.4z"/>
	</g>
	<g>
		<path class="st0" d="M43.3,328.1l-1.8-2.4c-0.2-0.2-0.1-0.6,0.1-0.8c0.2-0.2,0.6-0.1,0.8,0.1l1.8,2.4c0.2,0.2,0.1,0.6-0.1,0.8
			C43.8,328.4,43.5,328.3,43.3,328.1z"/>
		<path class="st0" d="M47.3,333.4l-2-2.7c-0.2-0.2-0.1-0.6,0.1-0.8c0.2-0.2,0.6-0.1,0.8,0.1l2,2.7c0.2,0.2,0.1,0.6-0.1,0.8
			C47.8,333.7,47.5,333.7,47.3,333.4z"/>
		<path class="st0" d="M51.1,338.5l-1.8-2.4c-0.2-0.2-0.1-0.6,0.1-0.8c0.2-0.2,0.6-0.1,0.8,0.1l1.8,2.4c0.2,0.2,0.1,0.6-0.1,0.8
			C51.6,338.7,51.3,338.7,51.1,338.5z"/>
	</g>
	<g>
		<path class="st0" d="M39.1,330.2c0-0.1-0.1-0.1-0.1-0.2l-0.6-2.9c-0.1-0.3,0.1-0.6,0.4-0.6c0.3-0.1,0.6,0.1,0.6,0.4l0.6,2.9
			c0.1,0.3-0.1,0.6-0.4,0.6C39.4,330.5,39.2,330.4,39.1,330.2z"/>
		<path class="st0" d="M40.6,336.9c0-0.1-0.1-0.1-0.1-0.2l-0.7-3.4c-0.1-0.3,0.1-0.6,0.4-0.6c0.3-0.1,0.6,0.1,0.6,0.4l0.7,3.4
			c0.1,0.3-0.1,0.6-0.4,0.6C40.9,337.2,40.7,337.1,40.6,336.9z"/>
		<path class="st0" d="M41.9,343.2c0-0.1-0.1-0.1-0.1-0.2l-0.6-2.9c-0.1-0.3,0.1-0.6,0.4-0.6c0.3-0.1,0.6,0.1,0.6,0.4l0.6,2.9
			c0.1,0.3-0.1,0.6-0.4,0.6C42.3,343.4,42.1,343.3,41.9,343.2z"/>
	</g>
</g>
<g>
	<path class="st0" d="M28.9,417.6c-4-4-4-10.5,0-14.5s10.5-4,14.5,0l14.3,14.3l-0.5,0.5L43,403.5c-3.7-3.7-9.8-3.7-13.6,0
		c-3.7,3.7-3.7,9.8,0,13.6c3.3,3.3,19.6,8.6,19.7,8.7l-0.2,0.6C48.3,426.2,32.4,421,28.9,417.6z"/>
	<path class="st0" d="M48.8,426.3c-0.9-0.9,1.7-3.9,3.3-5.6c1.7-1.7,4.7-4.2,5.6-3.3c0.9,0.9-1.7,3.9-3.3,5.6
		C52.7,424.6,49.7,427.2,48.8,426.3z M57.3,417.9c-0.3-0.1-2.2,0.9-4.6,3.3c-2.5,2.5-3.5,4.3-3.3,4.7c0.3,0.1,2.2-0.9,4.6-3.3
		C56.4,420,57.4,418.2,57.3,417.9z"/>
	<path class="st0" d="M29.9,414.2c-2.3-2.3-2.3-6.1,0-8.4s6.1-2.3,8.4,0c2.3,2.3,2.3,6.1,0,8.4C36,416.5,32.2,416.5,29.9,414.2z
		 M37.8,406.2c-2.1-2.1-5.4-2.1-7.5,0s-2.1,5.4,0,7.5s5.4,2.1,7.5,0C39.9,411.6,39.9,408.3,37.8,406.2z"/>
	<path class="st0" d="M56.8,422l-0.1-0.1c-0.1-0.2,0-0.4,0.2-0.4c0.1,0,1.6-0.6,2.8,0.5l0,0c0.5,0.6,0.8,1.1,1,1.7
		c0.2,0.5,0.4,1,0.9,1.5c1,1,2.4,0.9,2.5,0.9c0.2,0,0.3,0.1,0.3,0.3c0,0.2-0.1,0.3-0.3,0.3c-0.1,0-1.8,0.1-2.9-1.1
		c-0.6-0.6-0.8-1.2-1-1.8c-0.2-0.5-0.4-1-0.8-1.5c-0.9-0.9-2.1-0.4-2.1-0.4C57.1,422.1,56.9,422.1,56.8,422z"/>
	<path class="st0" d="M54.6,424.3l-0.1-0.1c-0.1-0.2,0-0.4,0.2-0.4c0.1,0,1.6-0.6,2.8,0.5l0,0c0.5,0.6,0.8,1.1,1,1.7
		c0.2,0.5,0.4,1,0.9,1.5c1,1,2.4,0.9,2.5,0.9c0.2,0,0.3,0.1,0.3,0.3c0,0.2-0.1,0.3-0.3,0.3c-0.1,0-1.8,0.1-2.9-1.1
		c-0.6-0.6-0.8-1.2-1-1.8c-0.2-0.5-0.4-1-0.8-1.5c-0.9-0.9-2.1-0.4-2.1-0.4C54.8,424.4,54.7,424.4,54.6,424.3z"/>
	<path class="st0" d="M52.3,426.5l-0.1-0.1c-0.1-0.2,0-0.4,0.2-0.4c0.1,0,1.6-0.6,2.8,0.5l0,0c0.5,0.6,0.8,1.1,1,1.7
		c0.2,0.5,0.4,1,0.9,1.5c1,1,2.4,0.9,2.5,0.9c0.2,0,0.3,0.1,0.3,0.3c0,0.2-0.1,0.3-0.3,0.3c-0.1,0-1.8,0.1-2.9-1.1
		c-0.6-0.6-0.8-1.2-1-1.8c-0.2-0.5-0.4-1-0.8-1.5c-0.9-0.9-2.1-0.4-2.1-0.4C52.5,426.7,52.4,426.6,52.3,426.5z"/>
	<path class="st0" d="M16.6,427l-1-1c-1.2-1.2-1.2-3.1,0-4.3L26,411.3l0.5,0.5l-10.4,10.4c-0.9,0.9-0.9,2.4,0,3.4l1,1
		c0.8,0.8,2,0.8,2.8,0l3.3-3.3c0.7-0.7,1.5-1.1,2.5-1.3l1.4-0.2c0.7-0.1,1.3-0.5,1.8-1l2.1-2.1l0.5,0.5l-2.1,2.1
		c-0.6,0.6-1.3,1-2.2,1.1l-1.4,0.2c-0.8,0.1-1.6,0.5-2.1,1.1l-3.3,3.3C19.3,428,17.7,428,16.6,427z"/>
	<path class="st0" d="M20.1,427.2l-2.2-2.2c-0.4-0.4-0.4-1.1,0-1.5l0.6-0.6c0.4-0.4,1.1-0.4,1.5,0l2.2,2.2L20.1,427.2z M19.5,423.3
		c-0.2-0.2-0.4-0.2-0.6,0l-0.6,0.6c-0.2,0.2-0.2,0.4,0,0.6l1.8,1.8l1.2-1.2L19.5,423.3z"/>
	<path class="st0" d="M22.6,424.7l-2.2-2.2c-0.4-0.4-0.4-1.1,0-1.5l0.6-0.6c0.4-0.4,1.1-0.4,1.5,0l2.2,2.2L22.6,424.7z M22.1,420.8
		c-0.2-0.2-0.4-0.2-0.6,0l-0.6,0.6c-0.2,0.2-0.2,0.4,0,0.6l1.8,1.8l1.2-1.2L22.1,420.8z"/>
</g>
<g>
	<path class="st0" d="M21.8,530.1l-37.4-15.2l1.8-4.3l37.4,15.2L21.8,530.1z M-13.8,514.1l34.9,14.2l0.8-1.9l-35-14.1L-13.8,514.1z"
		/>
	<path class="st0" d="M26.4,520.4l-2.9,3.7l-32-24.7l2.9-3.7L26.4,520.4z M23.3,522.3l1.2-1.6l-29.9-23l-1.2,1.6L23.3,522.3z"/>
	<path class="st0" d="M35.4,539.9l-1.3,0.7c-2,1.2-4.3,1.4-6.5,0.5l-40.9-16.6c-3.7-1.5-5.5-5.8-4-9.5l0.7-1.8l0.6,0.3l44.7,18.2
		v0.5c0,2.6,1.2,5.1,3.4,6.5c0.5,0.4,1.2,0.6,1.8,0.9L35.4,539.9z M-15.8,514.9l-0.2,0.5c-1.2,3,0.2,6.5,3.3,7.8l40.9,16.7
		c1.3,0.5,2.7,0.6,4,0.2c-0.2-0.1-0.5-0.3-0.7-0.4c-2.5-1.6-3.9-4.3-4-7.2L-15.8,514.9z"/>
	<path class="st0" d="M40,534.7c-1.3,2-4.1,2.6-6.1,1.3s-2.6-4.1-1.3-6.1s4.1-2.6,6.1-1.3C40.8,529.9,41.3,532.6,40,534.7z
		 M33.7,530.6c-0.9,1.4-0.5,3.3,0.9,4.3c1.4,0.9,3.3,0.5,4.3-0.9c0.9-1.4,0.5-3.3-0.9-4.3C36.6,528.7,34.6,529.1,33.7,530.6z"/>
	<path class="st0" d="M64.3,538.2c-4.2,6.5-15.7,0.5-16.2,0.2l0.6-1.2c0.1,0.1,10.9,5.7,14.5,0.2c0.6-1,0.8-1.9,0.5-2.9
		c-1-3.4-7.4-6.2-11.2-7.9c-0.6-0.3-1.1-0.5-1.6-0.7c-3.8-1.8-8.7-4.8-10-9.3c-0.7-2.5-0.2-5.1,1.5-7.8c1.6-2.5,3.7-3.9,6.2-4.3
		c4.9-0.8,9.6,2.9,9.8,3.1l-0.8,1c0,0-4.4-3.5-8.7-2.8c-2.1,0.3-3.9,1.6-5.3,3.7c-1.5,2.3-2,4.6-1.4,6.7c1.2,4.2,6.3,7.1,9.2,8.4
		c0.4,0.2,1,0.4,1.6,0.7c4.3,1.9,10.7,4.7,11.9,8.7C65.4,535.6,65.2,536.9,64.3,538.2z"/>
	<path class="st0" d="M68.6,507.9l-6.6,10l-3.9-2.6c-2.1-1.4-2.8-4.3-1.4-6.4l1.5-2.3c1.4-2.1,4.3-2.8,6.4-1.4L68.6,507.9z
		 M61.7,516.1l5.1-7.8l-2.8-1.8c-1.5-1-3.6-0.6-4.6,1l-1.5,2.3c-1,1.5-0.6,3.6,1,4.6L61.7,516.1z"/>
	<path class="st0" d="M69.1,517.8c-0.2,0.3-0.6,0.4-0.9,0.2l-4.9-3.2c-0.3-0.2-0.4-0.6-0.2-0.9s0.6-0.4,0.9-0.2l4.9,3.2
		C69.3,517.1,69.3,517.5,69.1,517.8z"/>
	<path class="st0" d="M71.3,514.4c-0.2,0.3-0.6,0.4-0.9,0.2l-4.9-3.2c-0.3-0.2-0.4-0.6-0.2-0.9s0.6-0.4,0.9-0.2l4.9,3.2
		C71.4,513.7,71.5,514.1,71.3,514.4z"/>
	<path class="st0" d="M41.7,526.8l-1.2-0.8c0,0-0.1,0-0.1-0.1c-2.5-1.6-5.7-1.6-8.2,0l-0.4,0.2l-0.4-0.3l-39-30.1l1.2-1.5
		c1.2-1.5,2.9-2.5,4.8-2.8c1.9-0.2,3.8,0.3,5.4,1.5l35,27c1.8,1.4,2.8,3.4,2.8,5.6L41.7,526.8z M31.9,524.5c2.5-1.4,5.6-1.5,8.2-0.3
		c-0.3-1.3-1.1-2.5-2.2-3.3l-35-27c-1.3-1-2.8-1.4-4.4-1.2c-1.6,0.2-3,1-4,2.3l-0.4,0.5L31.9,524.5z"/>
	<path class="st0" d="M48.6,538.8c-1.5,2.4-4.7,3-7.1,1.5c-0.4-0.2-0.7-0.5-1-0.9l-0.5-0.6l0.6-0.4c0.8-0.6,1.5-1.3,2-2.1
		c0.9-1.4,1.3-3.1,1.2-4.8l-0.1-0.7h0.7c0.9,0,1.8,0.3,2.6,0.8C49.5,533.3,50.2,536.4,48.6,538.8z M42,539c0.1,0.1,0.1,0.1,0.2,0.2
		c1.8,1.1,4.1,0.6,5.3-1.1c1.1-1.8,0.6-4.1-1.1-5.3c-0.4-0.2-0.8-0.4-1.2-0.5c0,1.7-0.5,3.4-1.4,4.8C43.3,537.8,42.7,538.5,42,539z"
		/>
	<path class="st0" d="M43.8,537.1c-2.7,4.1-8.2,5.3-12.3,2.6s-5.3-8.2-2.6-12.3s8.2-5.3,12.3-2.6S46.4,533,43.8,537.1z M30,528.1
		c-2.3,3.5-1.3,8.2,2.2,10.5s8.2,1.3,10.5-2.2s1.3-8.2-2.2-10.5C36.9,523.6,32.2,524.6,30,528.1z"/>
</g>
<g>
	<path class="st0" d="M-10.2,586.5c0.7-0.2,1.5-0.1,2.1,0.3l38.6,23.8c0.6,0.4,1.1,1,1.3,1.7s0.1,1.5-0.3,2.1l-6.7,10.8
		c-0.3,0.5-0.8,0.9-1.4,1c-0.6,0.1-1.2,0-1.8-0.3c-0.5-0.3-0.9-0.8-1-1.4c-0.1-0.6,0-1.2,0.3-1.8l5.3-8.7l-35.5-21.9l-5.4,8.9
		c-0.7,1.1-2.1,1.4-3.2,0.8c-0.5-0.3-0.9-0.8-1-1.4s0-1.2,0.3-1.8l6.6-10.9C-11.6,587.1-11,586.6-10.2,586.5z M23.2,625.6
		c0.4-0.1,0.8-0.4,1-0.7l6.7-10.8c0.3-0.5,0.4-1,0.3-1.6c-0.1-0.5-0.5-1-0.9-1.3l-38.6-23.8c-0.5-0.3-1-0.4-1.6-0.3
		c-0.5,0.1-1,0.5-1.3,0.9l-6.8,10.9c-0.2,0.4-0.3,0.8-0.2,1.2c0.1,0.4,0.4,0.8,0.7,1c0.8,0.5,1.7,0.2,2.2-0.5l5.7-9.3L27.1,614
		l-5.7,9.3c-0.2,0.4-0.3,0.8-0.2,1.2s0.4,0.8,0.7,1C22.3,625.7,22.7,625.7,23.2,625.6z"/>
	<path class="st0" d="M24,612.2c0.1,0,0.2,0,0.3,0c0.2,0.1,0.2,0.3,0.1,0.5l-6.2,10c-0.1,0.2-0.3,0.2-0.5,0.1
		c-0.2-0.1-0.2-0.3-0.1-0.5l6.2-10C23.8,612.3,23.9,612.2,24,612.2z"/>
	<path class="st0" d="M20.9,610.3c0.1,0,0.2,0,0.3,0c0.2,0.1,0.2,0.3,0.1,0.5l-6.2,10c-0.1,0.2-0.3,0.2-0.5,0.1
		c-0.2-0.1-0.2-0.3-0.1-0.5l6.2-10C20.8,610.4,20.8,610.3,20.9,610.3z"/>
	<path class="st0" d="M17.9,608.4c0.1,0,0.2,0,0.3,0c0.2,0.1,0.2,0.3,0.1,0.5l-6.2,10c-0.1,0.2-0.3,0.2-0.5,0.1s-0.2-0.3-0.1-0.5
		l6.2-10C17.7,608.5,17.8,608.4,17.9,608.4z"/>
	<path class="st0" d="M14.8,606.5c0.1,0,0.2,0,0.3,0c0.2,0.1,0.2,0.3,0.1,0.5L9,617c-0.1,0.2-0.3,0.2-0.5,0.1s-0.2-0.3-0.1-0.5
		l6.2-10C14.6,606.6,14.7,606.5,14.8,606.5z"/>
	<path class="st0" d="M11.7,604.6c0.1,0,0.2,0,0.3,0c0.2,0.1,0.2,0.3,0.1,0.5l-6.2,10c-0.1,0.2-0.3,0.2-0.5,0.1
		c-0.2-0.1-0.2-0.3-0.1-0.5l6.2-10C11.5,604.7,11.6,604.6,11.7,604.6z"/>
	<path class="st0" d="M8.6,602.7c0.1,0,0.2,0,0.3,0c0.2,0.1,0.2,0.3,0.1,0.5l-6.2,10c-0.1,0.2-0.3,0.2-0.5,0.1
		c-0.2-0.1-0.2-0.3-0.1-0.5l6.2-10C8.4,602.8,8.5,602.7,8.6,602.7z"/>
	<path class="st0" d="M5.5,600.8c0.1,0,0.2,0,0.3,0c0.2,0.1,0.2,0.3,0.1,0.5l-6.2,10c-0.1,0.2-0.3,0.2-0.5,0.1
		c-0.2-0.1-0.2-0.3-0.1-0.5l6.2-10C5.4,600.9,5.5,600.8,5.5,600.8z"/>
	<path class="st0" d="M2.5,598.9c0.1,0,0.2,0,0.3,0c0.2,0.1,0.2,0.3,0.1,0.5l-6.2,10c-0.1,0.2-0.3,0.2-0.5,0.1
		c-0.2-0.1-0.2-0.3-0.1-0.5l6.2-10C2.3,599,2.4,598.9,2.5,598.9z"/>
	<path class="st0" d="M-0.6,597c0.1,0,0.2,0,0.3,0c0.2,0.1,0.2,0.3,0.1,0.5l-6.2,10c-0.1,0.2-0.3,0.2-0.5,0.1s-0.2-0.3-0.1-0.5
		l6.2-10C-0.8,597.1-0.7,597-0.6,597z"/>
	<path class="st0" d="M-3.7,595.1c0.1,0,0.2,0,0.3,0c0.2,0.1,0.2,0.3,0.1,0.5l-6.2,10c-0.1,0.2-0.3,0.2-0.5,0.1
		c-0.2-0.1-0.2-0.3-0.1-0.5l6.2-10C-3.9,595.2-3.8,595.1-3.7,595.1z"/>
	<path class="st0" d="M-6.8,593.2c0.1,0,0.2,0,0.3,0c0.2,0.1,0.2,0.3,0.1,0.5l-6.2,10c-0.1,0.2-0.3,0.2-0.5,0.1
		c-0.2-0.1-0.2-0.3-0.1-0.5l6.2-10C-6.9,593.3-6.9,593.2-6.8,593.2z"/>
</g>
</svg>
