<svg version="1.1" id="Layer_1" xmlns="http://www.w3.org/2000/svg" xmlns:xlink="http://www.w3.org/1999/xlink" x="0px" y="0px"
	 viewBox="0 0 79.8 686.4" style="enable-background:new 0 0 79.8 686.4;" xml:space="preserve">
<style type="text/css">
	.st0{fill:rgba(255,255,255, 1);}
</style>
<g>
	<path class="st0" d="M42.1,597.6l17.6-17.8l2.1,2l-17.6,17.8L42.1,597.6z M59.7,580.9l-16.5,16.7l0.9,0.9l16.5-16.7L59.7,580.9z"/>
	<path class="st0" d="M46.6,602.5l-1.4-2.5l21.7-12.5l1.4,2.5L46.6,602.5z M46.2,600.3l0.6,1.1l20.3-11.7l-0.6-1.1L46.2,600.3z"/>
	<path class="st0" d="M33.2,603l-0.1-0.9c-0.2-1.4,0.3-2.8,1.3-3.8l19.3-19.5c1.8-1.8,4.6-1.8,6.4,0l0.8,0.8l-0.3,0.3l-21.1,21.3
		l-0.3-0.1c-1.5-0.7-3.2-0.5-4.5,0.4c-0.3,0.2-0.6,0.5-0.9,0.8L33.2,603z M59.7,579.6l-0.3-0.3c-1.5-1.4-3.8-1.4-5.2,0L35,598.9
		c-0.6,0.6-1,1.4-1,2.2c0.1-0.1,0.3-0.2,0.4-0.3c1.5-1,3.4-1.2,5.1-0.6L59.7,579.6z"/>
	<path class="st0" d="M35.1,606.9c-0.9-1.2-0.5-3,0.7-3.8c1.2-0.9,3-0.5,3.8,0.7c0.9,1.2,0.5,3-0.7,3.8
		C37.7,608.5,36,608.2,35.1,606.9z M39,604.3c-0.6-0.9-1.8-1.1-2.7-0.5c-0.9,0.6-1.1,1.8-0.5,2.7s1.8,1.1,2.7,0.5
		S39.6,605.2,39,604.3z"/>
	<path class="st0" d="M27.3,620c-2.7-4,3.5-9.1,3.7-9.4l0.5,0.6c-0.1,0-5.9,4.9-3.6,8.3c0.4,0.6,0.9,0.9,1.5,1
		c2.2,0.2,5.3-2.8,7.2-4.5c0.3-0.3,0.6-0.5,0.8-0.7c1.9-1.8,4.8-3.8,7.7-3.5c1.6,0.2,3,1.1,4.1,2.7c1,1.5,1.4,3.1,1,4.6
		c-0.7,3-3.9,4.8-4.1,4.9l-0.4-0.7c0,0,3-1.7,3.7-4.3c0.3-1.3,0-2.6-0.9-3.9c-1-1.4-2.2-2.2-3.5-2.4c-2.7-0.3-5.6,1.9-7,3.3
		c-0.2,0.2-0.5,0.5-0.8,0.7c-2.1,2-5.3,5-7.8,4.8C28.6,621.3,27.9,620.8,27.3,620z"/>
	<path class="st0" d="M43.7,629.7l-4.2-6.1l2.4-1.7c1.3-0.9,3.1-0.6,4,0.8l0.9,1.4c0.9,1.3,0.6,3.1-0.8,4L43.7,629.7z M40.6,623.8
		l3.3,4.8l1.7-1.2c0.9-0.6,1.2-1.9,0.5-2.9l-0.9-1.4c-0.6-0.9-1.9-1.2-2.9-0.5L40.6,623.8z"/>
	<path class="st0" d="M37.9,627.7c-0.1-0.2-0.1-0.4,0.1-0.6l3-2c0.2-0.1,0.4-0.1,0.6,0.1c0.1,0.2,0.1,0.4-0.1,0.6l-3,2
		C38.3,627.9,38,627.8,37.9,627.7z"/>
	<path class="st0" d="M39.3,629.7c-0.1-0.2-0.1-0.4,0.1-0.6l3-2c0.2-0.1,0.4-0.1,0.6,0.1c0.1,0.2,0.1,0.4-0.1,0.6l-3,2
		C39.7,629.9,39.4,629.9,39.3,629.7z"/>
	<path class="st0" d="M39.2,609.8l0.8-0.5c0,0,0,0,0.1,0c1.5-1,2.3-2.9,2-4.7v-0.3l0.3-0.1L68.9,589l0.6,1c0.6,1,0.8,2.3,0.4,3.4
		c-0.3,1.2-1.1,2.1-2.1,2.7L44,609.7c-1.2,0.7-2.6,0.8-3.9,0.3L39.2,609.8z M42.9,604.7c0.2,1.8-0.5,3.6-1.8,4.8
		c0.8,0.1,1.7,0,2.4-0.4l23.8-13.6c0.9-0.5,1.5-1.3,1.7-2.2c0.3-1,0.1-2-0.4-2.8l-0.2-0.3L42.9,604.7z"/>
	<path class="st0" d="M30.7,610.9c-1-1.4-0.6-3.4,0.8-4.4c0.2-0.2,0.5-0.3,0.7-0.4l0.4-0.2l0.1,0.5c0.1,0.6,0.4,1.1,0.7,1.6
		c0.6,0.9,1.4,1.5,2.5,1.8l0.4,0.1l-0.2,0.4c-0.2,0.5-0.6,1-1.1,1.3C33.7,612.7,31.7,612.3,30.7,610.9z M32.2,607.1l-0.1,0.1
		c-1.1,0.7-1.4,2.2-0.6,3.3s2.2,1.4,3.3,0.6c0.2-0.2,0.4-0.4,0.6-0.6c-1-0.4-1.8-1.1-2.4-2C32.6,608.1,32.3,607.6,32.2,607.1z"/>
	<path class="st0" d="M32.9,608.5c-1.7-2.5-1.1-6,1.4-7.7s6-1.1,7.7,1.4s1.1,6-1.4,7.7C38.1,611.6,34.6,611,32.9,608.5z M41.3,602.7
		c-1.5-2.1-4.4-2.7-6.5-1.2s-2.7,4.4-1.2,6.5s4.4,2.7,6.5,1.2C42.2,607.8,42.8,604.9,41.3,602.7z"/>
</g>
<g>
	<path class="st0" d="M42.6,47.1c-7.8,3.4-16.9-0.2-20.3-8s0.2-16.9,8-20.3L58.2,6.6l0.4,0.9l-28,12.2c-7.3,3.2-10.6,11.7-7.4,19
		s11.7,10.7,19,7.5c6.5-2.8,22.9-22.7,23-22.9L66,24C65.3,24.8,49.2,44.2,42.6,47.1z"/>
	<path class="st0" d="M65.8,24.1c-1.7,0.7-4.5-4.5-6-7.7c-1.4-3.2-3.3-8.9-1.6-9.6s4.5,4.5,6,7.7C65.6,17.7,67.5,23.4,65.8,24.1z
		 M58.6,7.6c-0.4,0.4,0,3.5,2.1,8.3c2.1,4.9,4.2,7.3,4.7,7.2c0.4-0.4,0-3.5-2.1-8.3C61.2,10,59.2,7.6,58.6,7.6z"/>
	<path class="st0" d="M38.3,43.9c-4.5,2-9.8-0.1-11.7-4.6c-1.9-4.5,0.1-9.8,4.6-11.7s9.8,0.1,11.7,4.6S42.8,41.9,38.3,43.9z
		 M31.6,28.4c-4,1.7-5.9,6.4-4.1,10.4s6.4,5.9,10.4,4.1c4-1.7,5.9-6.4,4.1-10.4S35.6,26.7,31.6,28.4z"/>
	<path class="st0" d="M64.2,10.5c-0.1,0-0.1,0-0.2,0c-0.3,0-0.5-0.2-0.5-0.5c0-0.1,0-2.6,2.3-3.6h0.1C66.9,6,67.8,6,68.7,6
		c0.9,0,1.7,0,2.6-0.4C73.2,4.8,74,2.7,74,2.7c0.1-0.3,0.4-0.4,0.6-0.3C74.9,2.5,75,2.8,74.9,3c0,0.1-0.9,2.5-3.1,3.5
		C70.6,7,69.6,7,68.7,7c-0.8,0-1.6,0-2.5,0.3C64.4,8,64.4,10,64.4,10C64.4,10.2,64.3,10.4,64.2,10.5z"/>
	<path class="st0" d="M66.1,14.9c-0.1,0-0.1,0-0.2,0c-0.3,0-0.5-0.2-0.5-0.5c0-0.1,0-2.6,2.3-3.6h0.1c1.1-0.5,2-0.4,2.9-0.4
		s1.7,0,2.6-0.4c1.9-0.8,2.6-2.9,2.6-2.9c0.1-0.3,0.4-0.4,0.6-0.3c0.3,0.1,0.4,0.4,0.3,0.6c0,0.1-0.9,2.5-3.1,3.5
		c-1.2,0.5-2.1,0.5-3,0.5c-0.8,0-1.6,0-2.5,0.3c-1.7,0.7-1.7,2.7-1.7,2.7C66.4,14.7,66.3,14.8,66.1,14.9z"/>
	<path class="st0" d="M68,19.4c-0.1,0-0.1,0-0.2,0c-0.3,0-0.5-0.2-0.5-0.5c0-0.1,0-2.6,2.3-3.6h0.1c1.1-0.5,2-0.4,2.9-0.4
		s1.7,0,2.6-0.4c1.9-0.8,2.6-2.9,2.6-2.9c0.1-0.3,0.4-0.4,0.6-0.3c0.3,0.1,0.4,0.4,0.3,0.6c0,0.1-0.9,2.5-3.1,3.5
		c-1.2,0.5-2.1,0.5-3,0.5c-0.8,0-1.6,0-2.5,0.3c-1.8,0.7-1.7,2.7-1.7,2.7C68.3,19.1,68.2,19.3,68,19.4z"/>
	<path class="st0" d="M49,69.5l-2,0.9c-2.3,1-5-0.1-6-2.4l-8.8-20.3l0.9-0.4l8.8,20.3c0.8,1.8,2.9,2.7,4.7,1.9l2-0.9
		c1.5-0.7,2.2-2.4,1.5-3.9l-2.8-6.5c-0.6-1.3-0.7-2.8-0.4-4.2l0.4-2c0.2-1,0.1-2.1-0.3-3.1l-1.8-4.1l0.9-0.4l1.8,4.1
		c0.5,1.2,0.6,2.4,0.4,3.7l-0.4,2c-0.2,1.2-0.1,2.5,0.4,3.6l2.8,6.5C51.9,66.3,51,68.7,49,69.5z"/>
	<path class="st0" d="M51.2,64.8l-4.4,1.9c-0.8,0.3-1.7,0-2.1-0.8l-0.5-1.2c-0.3-0.8,0-1.7,0.8-2.1l4.4-1.9L51.2,64.8z M45.4,63.4
		c-0.3,0.1-0.5,0.5-0.3,0.8l0.5,1.2c0.1,0.3,0.5,0.5,0.8,0.3l3.5-1.5l-1-2.3L45.4,63.4z"/>
	<path class="st0" d="M49.1,59.9l-4.4,1.9c-0.8,0.3-1.7,0-2.1-0.8l-0.5-1.2c-0.3-0.8,0-1.7,0.8-2.1l4.4-1.9L49.1,59.9z M43.3,58.5
		C43,58.7,42.9,59,43,59.3l0.5,1.2c0.1,0.3,0.5,0.5,0.8,0.3l3.5-1.5l-1-2.3L43.3,58.5z"/>
</g>
<g>
	<path class="st0" d="M68.6,130.3C66.3,122.6,71,114.4,79,112c8.1-2.4,16.5,1.9,18.8,9.6s-2.4,15.9-10.4,18.3S70.9,138,68.6,130.3z
		 M97.2,121.7c-2.2-7.4-10.3-11.5-18-9.2S67,122.7,69.2,130c2.2,7.4,10.3,11.5,18,9.2S99.4,129.1,97.2,121.7z"/>
	<path class="st0" d="M70.8,129.6c-2-6.5,2-13.5,8.8-15.5s14,1.6,15.9,8.1c2,6.5-2,13.5-8.8,15.5C79.9,139.8,72.8,136.1,70.8,129.6z
		 M95,122.4c-1.9-6.2-8.6-9.6-15.1-7.7s-10.3,8.6-8.4,14.8c1.9,6.2,8.6,9.6,15.1,7.7S96.8,128.6,95,122.4z"/>
	<path class="st0" d="M79.9,131.5c0-0.1,0-0.2,0-0.2l5.7-10.6c0.1-0.2,0.3-0.2,0.4-0.1c0.2,0.1,0.2,0.3,0.1,0.4l-5.7,10.6
		c-0.1,0.2-0.3,0.2-0.4,0.1C80,131.6,79.9,131.5,79.9,131.5z"/>
	<path class="st0" d="M83.5,131.3c0-0.1,0-0.2,0-0.2l3.4-6.3c0.1-0.2,0.3-0.2,0.4-0.1c0.2,0.1,0.2,0.3,0.1,0.4l-3.4,6.3
		c-0.1,0.2-0.3,0.2-0.4,0.1C83.5,131.5,83.5,131.4,83.5,131.3z"/>
	<path class="st0" d="M78.6,127.7c0-0.1,0-0.2,0-0.2l3.5-6.5c0.1-0.2,0.3-0.2,0.4-0.1c0.2,0.1,0.2,0.3,0.1,0.4l-3.5,6.5
		c-0.1,0.2-0.3,0.2-0.4,0.1C78.7,127.8,78.6,127.7,78.6,127.7z"/>
	<g>
		<path class="st0" d="M76.5,113.6l-0.8-2.8c-0.3-1,0.3-2,1.3-2.3s2,0.3,2.3,1.3L80,112l-0.6,0.2l0.3-0.1v0.3
			c-0.1,0-0.4,0.1-0.5,0.2c-0.8,0.3-1.5,0.5-2.3,0.9L76.5,113.6z M78.7,110c-0.2-0.7-0.9-1-1.6-0.8s-1,0.9-0.8,1.6l0.6,2.1
			c0.7-0.3,1.3-0.6,2.1-0.8c0.1,0,0.2-0.1,0.3-0.1L78.7,110z"/>
		<path class="st0" d="M85.1,142.4l-0.8-2.6l0.4-0.1c0.9-0.1,1.6-0.3,2.4-0.5c0.2-0.1,0.5-0.2,0.5-0.2l0.1,0.3l0.3-0.1l0.6,2.1
			c0.3,1-0.3,2-1.3,2.3S85.4,143.4,85.1,142.4z M85.2,140.3l0.6,1.9c0.2,0.7,0.9,1,1.6,0.8s1-0.9,0.8-1.6l-0.5-1.8
			c-0.1,0-0.2,0.1-0.3,0.1C86.6,140.1,85.9,140.2,85.2,140.3z"/>
	</g>
	<path class="st0" d="M62.2,134.5l-1.3-4.2l6.7-2c0.5-0.1,1,0.1,1.1,0.6l0.7,2.4c0.1,0.5-0.1,1-0.6,1.1L62.2,134.5z M61.7,130.7
		l0.9,3l6.1-1.8c0.2,0,0.2-0.2,0.2-0.4l-0.7-2.4c0-0.2-0.2-0.2-0.4-0.2L61.7,130.7z"/>
	<path class="st0" d="M64.6,133.2l4.2-1.3c0.2,0,0.3-0.3,0.3-0.4l-0.7-2.4c0-0.1-0.3-0.2-0.5-0.1l-4.2,1.3l-0.1-0.3
		c-1.6-8.7,3.7-17.5,12.1-20c0.2,0,0.3,0,0.4,0.2s0,0.3-0.2,0.4c-8,2.4-13.1,10.7-11.8,19l3.5-1c0.5-0.1,1.1,0,1.2,0.6l0.7,2.4
		c0.1,0.5-0.2,1.1-0.7,1.2l-3.5,1c3.4,7.5,12.5,11.7,20.3,9.3c0.2,0,0.3,0,0.4,0.2s0,0.3-0.2,0.4c-8.3,2.5-17.8-2-21.2-10
		L64.6,133.2z"/>
	<path class="st0" d="M61.1,140.2l-4.2-14.1c-0.2-0.6,0.2-1.3,0.8-1.4l0.9-0.3c0.6-0.2,1.3,0.2,1.4,0.8l4.2,14.1
		c0.2,0.6-0.2,1.3-0.8,1.4l-0.9,0.3C62,141.2,61.3,140.8,61.1,140.2z M59.5,125.3c-0.1-0.3-0.4-0.4-0.7-0.4l-0.9,0.3
		c-0.3,0.1-0.4,0.4-0.4,0.7l4.2,14.1c0.1,0.3,0.4,0.4,0.7,0.4l0.9-0.3c0.3-0.1,0.4-0.4,0.4-0.7L59.5,125.3z"/>
</g>
<g>
	<path class="st0" d="M71.1,536.4c-4.8-6.4-3.3-15.8,3.5-20.8s16.1-3.9,20.9,2.5c4.8,6.4,3.3,15.8-3.5,20.8S75.9,542.9,71.1,536.4z
		 M95,518.5c-4.6-6.1-13.6-7.2-20.1-2.4s-8,13.8-3.3,19.9c4.6,6.1,13.6,7.2,20.1,2.4C98.1,533.6,99.6,524.7,95,518.5z"/>
	<path class="st0" d="M72.9,535c-4.1-5.4-2.8-13.4,2.9-17.6s13.7-3.3,17.7,2.1s2.8,13.4-2.9,17.6C85,541.4,77,540.5,72.9,535z
		 M93.1,519.9c-3.9-5.2-11.4-6.1-16.9-2s-6.7,11.6-2.8,16.8c3.9,5.2,11.4,6.1,16.9,2C95.7,532.6,97,525.1,93.1,519.9z"/>
	<path class="st0" d="M82.1,533.7c0-0.1-0.1-0.1-0.1-0.2l1.7-11.9c0-0.2,0.2-0.3,0.4-0.3s0.3,0.2,0.3,0.4l-1.7,11.9
		c0,0.2-0.2,0.3-0.4,0.3C82.2,533.8,82.1,533.7,82.1,533.7z"/>
	<path class="st0" d="M85.4,532.3c0-0.1-0.1-0.1-0.1-0.2l1-7.1c0-0.2,0.2-0.3,0.4-0.3c0.2,0,0.3,0.2,0.3,0.4l-1,7.1
		c0,0.2-0.2,0.3-0.4,0.3C85.5,532.4,85.4,532.3,85.4,532.3z"/>
	<path class="st0" d="M79.6,530.5c0-0.1-0.1-0.1-0.1-0.2l1-7.3c0-0.2,0.2-0.3,0.4-0.3s0.3,0.2,0.3,0.4l-1,7.3c0,0.2-0.2,0.3-0.4,0.3
		C79.7,530.6,79.6,530.6,79.6,530.5z"/>
	<g>
		<path class="st0" d="M72.8,518.1l-1.7-2.3c-0.6-0.8-0.4-2,0.4-2.6s2-0.5,2.6,0.4l1.4,1.9l-0.5,0.4l0.3-0.2l0.2,0.3
			c0,0-0.3,0.2-0.5,0.3c-0.7,0.5-1.2,1-1.9,1.7L72.8,518.1z M73.5,513.9c-0.4-0.5-1.2-0.7-1.8-0.2c-0.6,0.4-0.7,1.2-0.3,1.7l1.3,1.7
			c0.5-0.5,1-1,1.7-1.5c0.1-0.1,0.2-0.1,0.2-0.2L73.5,513.9z"/>
		<path class="st0" d="M90.8,542.1l-1.6-2.2l0.3-0.2c0.8-0.4,1.4-0.8,2.1-1.3c0.2-0.1,0.4-0.3,0.4-0.3l0.2,0.2l0.3-0.2l1.3,1.7
			c0.6,0.8,0.4,2-0.4,2.6C92.6,543.1,91.4,543,90.8,542.1z M90.1,540.2l1.2,1.6c0.4,0.5,1.2,0.7,1.8,0.2c0.6-0.4,0.7-1.2,0.3-1.7
			l-1.1-1.5c-0.1,0.1-0.1,0.1-0.2,0.2C91.3,539.4,90.8,539.8,90.1,540.2z"/>
	</g>
	<path class="st0" d="M66.5,542.6l-2.6-3.5l5.6-4.2c0.4-0.3,1-0.2,1.3,0.2l1.5,2c0.3,0.4,0.2,1-0.2,1.3L66.5,542.6z M64.8,539.2
		l1.9,2.5l5.1-3.8c0.1-0.1,0.2-0.3,0.1-0.4l-1.5-2c-0.1-0.1-0.3-0.2-0.4-0.1L64.8,539.2z"/>
	<path class="st0" d="M68.3,540.5l3.5-2.6c0.1-0.1,0.2-0.4,0.1-0.5l-1.5-2c-0.1-0.1-0.3-0.1-0.5,0l-3.5,2.6l-0.2-0.3
		c-4.5-7.6-2.5-17.7,4.5-23c0.1-0.1,0.3-0.1,0.4,0.1c0.1,0.1,0.1,0.3-0.1,0.4c-6.7,5-8.6,14.6-4.5,21.9l2.9-2.2
		c0.4-0.3,1-0.3,1.4,0.1l1.5,2c0.3,0.4,0.2,1.1-0.2,1.4l-2.9,2.2c5.8,5.9,15.7,6.7,22.3,1.7c0.1-0.1,0.3-0.1,0.4,0.1
		c0.1,0.1,0.1,0.3-0.1,0.4c-6.9,5.2-17.4,4.3-23.4-2.1L68.3,540.5z"/>
	<path class="st0" d="M67.5,548.3l-8.8-11.8c-0.4-0.5-0.3-1.2,0.2-1.6l0.8-0.6c0.5-0.4,1.2-0.3,1.6,0.2l8.8,11.8
		c0.4,0.5,0.3,1.2-0.2,1.6l-0.8,0.6C68.6,548.9,67.9,548.8,67.5,548.3z M60.8,534.9c-0.2-0.2-0.5-0.3-0.7-0.1l-0.8,0.6
		c-0.2,0.2-0.3,0.5-0.1,0.7l8.8,11.8c0.2,0.2,0.5,0.3,0.7,0.1l0.8-0.6c0.2-0.2,0.3-0.5,0.1-0.7L60.8,534.9z"/>
</g>
<g>
	<path class="st0" d="M25.7,233.6c0.1-1,0.7-2,1.5-2.6l50.3-38.6c0.8-0.6,1.9-0.9,2.9-0.8c1,0.1,2,0.7,2.6,1.5l10.8,14.1
		c0.5,0.7,0.8,1.5,0.6,2.4c-0.1,0.9-0.6,1.6-1.2,2.1c-0.7,0.5-1.5,0.8-2.4,0.6c-0.9-0.1-1.6-0.6-2.1-1.2L80,199.9l-46.2,35.5
		l8.6,11.3c1.1,1.4,0.8,3.5-0.6,4.5c-0.7,0.5-1.5,0.8-2.4,0.6c-0.9-0.1-1.6-0.6-2.1-1.2l-10.8-14.1
		C25.8,235.6,25.5,234.6,25.7,233.6z M93.4,209.5c0.1-0.6-0.1-1.2-0.4-1.7l-10.8-14.1c-0.5-0.6-1.2-1-1.9-1.1
		c-0.8-0.1-1.5,0.1-2.2,0.6l-50.3,38.6c-0.6,0.5-1,1.2-1.1,1.9c-0.1,0.8,0.1,1.5,0.6,2.2l10.7,14c0.4,0.5,0.9,0.8,1.5,0.9
		c0.6,0.1,1.2-0.1,1.7-0.4c1-0.8,1.2-2.2,0.4-3.1l-9.2-12l47.8-36.7l9.2,12c0.4,0.5,0.9,0.8,1.5,0.9s1.2-0.1,1.7-0.4
		C93,210.6,93.3,210.1,93.4,209.5z"/>
	<path class="st0" d="M76.3,201.7c0-0.1,0.1-0.2,0.2-0.3c0.2-0.2,0.5-0.1,0.7,0.1l10,13.1c0.2,0.2,0.1,0.5-0.1,0.7s-0.5,0.1-0.7-0.1
		l-10-13.1C76.3,201.9,76.3,201.8,76.3,201.7z"/>
	<path class="st0" d="M72.3,204.7c0-0.1,0.1-0.2,0.2-0.3c0.2-0.2,0.5-0.1,0.7,0.1l10,13.1c0.2,0.2,0.1,0.5-0.1,0.7s-0.5,0.1-0.7-0.1
		l-10-13.1C72.3,205,72.3,204.9,72.3,204.7z"/>
	<path class="st0" d="M68.3,207.8c0-0.1,0.1-0.2,0.2-0.3c0.2-0.2,0.5-0.1,0.7,0.1l10,13.1c0.2,0.2,0.1,0.5-0.1,0.7s-0.5,0.1-0.7-0.1
		l-10-13.1C68.3,208.1,68.2,207.9,68.3,207.8z"/>
	<path class="st0" d="M64.3,210.9c0-0.1,0.1-0.2,0.2-0.3c0.2-0.2,0.5-0.1,0.7,0.1l10,13.1c0.2,0.2,0.1,0.5-0.1,0.7s-0.5,0.1-0.7-0.1
		l-10-13.1C64.3,211.1,64.2,211,64.3,210.9z"/>
	<path class="st0" d="M60.2,214c0-0.1,0.1-0.2,0.2-0.3c0.2-0.2,0.5-0.1,0.7,0.1l10,13.1c0.2,0.2,0.1,0.5-0.1,0.7s-0.5,0.1-0.7-0.1
		l-10-13.1C60.3,214.2,60.2,214.1,60.2,214z"/>
	<path class="st0" d="M56.2,217c0-0.1,0.1-0.2,0.2-0.3c0.2-0.2,0.5-0.1,0.7,0.1l10,13.1c0.2,0.2,0.1,0.5-0.1,0.7s-0.5,0.1-0.7-0.1
		l-10-13.1C56.3,217.3,56.2,217.2,56.2,217z"/>
	<path class="st0" d="M52.2,220.1c0-0.1,0.1-0.2,0.2-0.3c0.2-0.2,0.5-0.1,0.7,0.1l10,13.1c0.2,0.2,0.1,0.5-0.1,0.7s-0.5,0.1-0.7-0.1
		l-10-13.1C52.2,220.4,52.2,220.2,52.2,220.1z"/>
	<path class="st0" d="M48.2,223.2c0-0.1,0.1-0.2,0.2-0.3c0.2-0.2,0.5-0.1,0.7,0.1l10,13.1c0.2,0.2,0.1,0.5-0.1,0.7
		c-0.2,0.2-0.5,0.1-0.7-0.1l-10-13.1C48.2,223.4,48.2,223.3,48.2,223.2z"/>
	<path class="st0" d="M44.2,226.2c0-0.1,0.1-0.2,0.2-0.3c0.2-0.2,0.5-0.1,0.7,0.1l10,13.1c0.2,0.2,0.1,0.5-0.1,0.7
		c-0.2,0.2-0.5,0.1-0.7-0.1l-10-13.1C44.2,226.5,44.2,226.4,44.2,226.2z"/>
	<path class="st0" d="M40.2,229.3c0-0.1,0.1-0.2,0.2-0.3c0.2-0.2,0.5-0.1,0.7,0.1l10,13.1c0.2,0.2,0.1,0.5-0.1,0.7
		c-0.2,0.2-0.5,0.1-0.7-0.1l-10-13.1C40.2,229.6,40.2,229.4,40.2,229.3z"/>
	<path class="st0" d="M36.2,232.4c0-0.1,0.1-0.2,0.2-0.3c0.2-0.2,0.5-0.1,0.7,0.1l10,13.1c0.2,0.2,0.1,0.5-0.1,0.7
		c-0.2,0.2-0.5,0.1-0.7-0.1l-10-13.1C36.2,232.7,36.2,232.5,36.2,232.4z"/>
</g>
<g>
	<path class="st0" d="M83.6,344.4c-2-0.5-3.3-2.5-2.9-4.5c0.5-2,2.5-3.3,4.5-2.9c2,0.5,3.3,2.5,2.9,4.5S85.6,344.8,83.6,344.4z
		 M85,337.9c-1.6-0.3-3.1,0.6-3.5,2.2c-0.3,1.6,0.6,3.1,2.2,3.5c1.6,0.3,3.1-0.6,3.5-2.2S86.6,338.2,85,337.9z"/>
	<path class="st0" d="M67.8,352.2c-1.3-0.3-2.4-0.9-3.4-1.8l0,0c-3-2.8-3.2-7.4-0.4-10.4s7.4-3.2,10.4-0.4c3,2.8,3.2,7.4,0.4,10.4
		c-1.3,1.4-3.1,2.3-5.1,2.3C69,352.4,68.4,352.3,67.8,352.2z M65,349.8c2.6,2.4,6.7,2.3,9.2-0.4c2.4-2.6,2.3-6.7-0.4-9.2
		c-2.6-2.4-6.7-2.3-9.2,0.4C62.1,343.3,62.4,347.3,65,349.8L65,349.8z"/>
	<path class="st0" d="M68.6,348.7c-0.6-0.1-1.2-0.4-1.7-0.9c-1.5-1.4-1.6-3.8-0.2-5.3c0.7-0.7,1.6-1.2,2.6-1.2s2,0.3,2.7,1
		c1.5,1.4,1.6,3.8,0.2,5.3C71.2,348.6,69.8,349,68.6,348.7z M70,342.2c-0.2-0.1-0.5-0.1-0.7-0.1c-0.8,0-1.5,0.4-2,0.9
		c-0.5,0.6-0.8,1.3-0.8,2.1c0,0.8,0.4,1.5,0.9,2c1.2,1.1,3,1,4.1-0.2s1-3-0.2-4.1C71,342.5,70.5,342.3,70,342.2z"/>
	<path class="st0" d="M55,306.3c-0.1,0-0.2-0.1-0.2-0.1c-0.2-0.2-0.2-0.4,0-0.6l3.1-2.9c0.2-0.2,0.4-0.2,0.6,0
		c0.2,0.2,0.2,0.4,0,0.6l-3.1,2.9C55.3,306.3,55.1,306.4,55,306.3z"/>
	<path class="st0" d="M57.3,308.8c-0.1,0-0.2-0.1-0.2-0.1c-0.2-0.2-0.2-0.4,0-0.6l3.1-2.9c0.2-0.2,0.4-0.2,0.6,0
		c0.2,0.2,0.2,0.4,0,0.6l-3.1,2.9C57.5,308.8,57.4,308.8,57.3,308.8z"/>
	<path class="st0" d="M59.6,311.3c-0.1,0-0.2-0.1-0.2-0.1c-0.2-0.2-0.2-0.4,0-0.6l3.1-2.9c0.2-0.2,0.4-0.2,0.6,0
		c0.2,0.2,0.2,0.4,0,0.6l-3.1,2.9C59.8,311.3,59.7,311.3,59.6,311.3z"/>
	<path class="st0" d="M61.9,313.7c-0.1,0-0.2-0.1-0.2-0.1c-0.2-0.2-0.2-0.4,0-0.6l3.1-2.9c0.2-0.2,0.4-0.2,0.6,0
		c0.2,0.2,0.2,0.4,0,0.6l-3.1,2.9C62.1,313.7,62,313.8,61.9,313.7z"/>
	<path class="st0" d="M64.2,316.2c-0.1,0-0.2-0.1-0.2-0.1c-0.2-0.2-0.2-0.4,0-0.6l3.1-2.9c0.2-0.2,0.4-0.2,0.6,0s0.2,0.4,0,0.6
		l-3.1,2.9C64.4,316.2,64.3,316.3,64.2,316.2z"/>
	<path class="st0" d="M66.4,318.7c-0.1,0-0.2-0.1-0.2-0.1c-0.2-0.2-0.2-0.4,0-0.6l3.1-2.9c0.2-0.2,0.4-0.2,0.6,0
		c0.2,0.2,0.2,0.4,0,0.6l-3.1,2.9C66.7,318.7,66.6,318.7,66.4,318.7z"/>
	<g>
		<path class="st0" d="M67.7,338.7l1.4-9.6l0.6,0.8c0.5,0.6,1.2,1,2,1.2l1.5,0.3c0.1,0,0.2,0.1,0.2,0.1l0.5,0.1l-0.3,0.5
			c-0.3,0.5-0.5,1-0.5,1.5l-0.7,5.6l-0.5-0.2c-1.2-0.5-2.4-0.6-3.7-0.4L67.7,338.7z M69.6,331.1l-0.9,6.6c1-0.1,2,0,3,0.4l0.5-4.4
			c0.1-0.5,0.2-0.9,0.4-1.4l-1.1-0.3C70.8,331.8,70.2,331.5,69.6,331.1z"/>
		<path class="st0" d="M76,329.2l-6.1-6.6l3.5-24.4c0.1-0.7,0.7-1.3,1.4-1.4l0.6-0.1c0.5,0,0.9,0.1,1.3,0.4c0.3,0.3,0.5,0.8,0.5,1.2
			l-1,29.3c0,0.2,0,0.4-0.1,0.6L76,329.2z M70.9,322.3l4.5,4.9l1-28.8c0-0.2-0.1-0.4-0.2-0.6c-0.2-0.1-0.4-0.2-0.6-0.2l-0.6,0.1
			c-0.3,0-0.6,0.3-0.7,0.6L70.9,322.3z"/>
	</g>
	<path class="st0" d="M78.6,337.7l-3.7-4.2c-0.5-0.6-1.2-1-1.9-1.2l-1.5-0.3c-1.1-0.2-2-0.8-2.6-1.7l-17.5-23.4
		c-0.3-0.4-0.4-0.8-0.3-1.3s0.4-0.8,0.8-1.1l0.6-0.3c0.6-0.3,1.4-0.2,1.9,0.3l27.9,30l-0.5,0.2c-1.2,0.5-2.1,1.4-2.8,2.4L78.6,337.7
		z M53.4,304.9c-0.2,0-0.4,0-0.5,0.1l-0.6,0.3c-0.2,0.1-0.3,0.3-0.4,0.5c0,0.2,0,0.4,0.1,0.6l17.5,23.4c0.5,0.7,1.2,1.1,2.1,1.3
		l1.5,0.3c0.9,0.2,1.7,0.7,2.4,1.4l2.9,3.4c0.6-0.8,1.4-1.5,2.3-2L53.6,305C53.6,305,53.5,304.9,53.4,304.9z"/>
	<path class="st0" d="M82.8,347.9c-4-0.9-6.5-4.8-5.6-8.8s4.8-6.5,8.8-5.6c3,0.7,5.2,3.1,5.7,6.1c0.5,0.3,2.3,1.5,4.7,2
		c1.4,0.3,2.3,1.7,2,3.1c-0.3,1.5-1.6,2.3-3.1,2c-1.4-0.3-3.4-1.8-4.3-2.5C89.4,347,86.1,348.6,82.8,347.9z M85.8,334.4
		c-3.5-0.8-7,1.4-7.7,4.9c-0.8,3.5,1.4,7,4.9,7.7c3,0.7,6.1-0.9,7.4-3.8l0.2-0.5l0.4,0.4c0,0,2.8,2.3,4.4,2.7c1,0.2,1.8-0.3,2-1.3
		c0.2-0.9-0.4-1.8-1.3-2c-3-0.7-5.1-2.2-5.1-2.2l-0.1-0.1V340C90.5,337.2,88.4,335,85.8,334.4z"/>
</g>
<g>
	<path class="st0" d="M86.1,461.5L69.5,478c-2,1.9-5.1,1.9-7.1,0l-34.3-34.8c-1.9-2-1.9-5.1,0-7.1l16.6-16.5c2-1.9,5.1-1.9,7.1,0
		l34.3,34.7C88,456.4,88,459.5,86.1,461.5z M29,437.1c-1.4,1.4-1.5,3.8,0,5.2L63.3,477c1.4,1.4,3.8,1.5,5.2,0l16.6-16.5
		c1.4-1.4,1.5-3.8,0-5.2l-34.3-34.7c-1.4-1.4-3.8-1.5-5.2,0L29,437.1z"/>
	<path class="st0" d="M74.9,454l-12.7,12.6l-20.6-20.8l12.7-12.6L74.9,454z M62.2,464.8L73,454l-18.8-19l-10.9,10.8L62.2,464.8z"/>
	<path class="st0" d="M48,426.3l-13.4,13.2c-0.3,0.3-0.7,0.2-0.9,0s-0.2-0.7,0-0.9l13.4-13.2c0.3-0.3,0.7-0.2,0.9,0
		S48.2,426,48,426.3z"/>
	<path class="st0" d="M44.4,421.8l-14.3,14.1l-2.3-2.3c-1.4-1.4-1.4-3.8,0-5.2l9-9c1.4-1.4,3.8-1.4,5.2,0L44.4,421.8z M30.2,434.1
		l12.4-12.3l-1.4-1.4c-0.9-0.9-2.5-0.9-3.4,0l-9,9c-0.9,0.9-0.9,2.5,0,3.4L30.2,434.1z"/>
	<path class="st0" d="M37.5,420.7l-8.3,8.3l-6.8-6.8c-1.4-1.5-1.4-3.8,0-5.2l3.1-3.1c1.5-1.4,3.8-1.4,5.2,0L37.5,420.7z M29.2,427.2
		l6.5-6.5l-5.9-5.9c-0.9-0.9-2.5-1-3.4,0l-3.1,3.1c-0.9,0.9-1,2.5,0,3.4L29.2,427.2z"/>
	<g>
		<path class="st0" d="M33,410.1c-0.2,0.2-0.4,0.2-0.7,0.1s-0.5-0.5-0.4-0.8l1.3-3.3c0.1-0.3,0.5-0.5,0.8-0.4
			c0.3,0.1,0.5,0.5,0.4,0.8l-1.3,3.3C33.2,410,33.1,410,33,410.1z"/>
		<path class="st0" d="M35.8,403.1c-0.2,0.2-0.4,0.2-0.7,0.1s-0.5-0.5-0.4-0.8l1.5-3.7c0.1-0.3,0.5-0.5,0.8-0.4
			c0.3,0.1,0.5,0.5,0.4,0.8l-1.5,3.7C35.9,402.9,35.8,403,35.8,403.1z"/>
		<path class="st0" d="M38.7,395.6c-0.2,0.2-0.4,0.2-0.7,0.1c-0.3-0.1-0.5-0.5-0.4-0.8l1.3-3.3c0.1-0.3,0.5-0.5,0.8-0.4
			c0.3,0.1,0.5,0.5,0.4,0.8l-1.3,3.3C38.8,395.5,38.8,395.5,38.7,395.6z"/>
	</g>
	<g>
		<path class="st0" d="M39.1,410.7l-2.5,2.5c-0.3,0.3-0.7,0.2-0.9,0c-0.3-0.3-0.2-0.7,0-0.9l2.5-2.5c0.3-0.3,0.7-0.2,0.9,0
			C39.4,410,39.4,410.4,39.1,410.7z"/>
		<path class="st0" d="M44.8,405l-2.9,2.8c-0.3,0.3-0.7,0.2-0.9,0c-0.3-0.3-0.2-0.7,0-0.9l2.9-2.8c0.3-0.3,0.7-0.2,0.9,0
			S45.1,404.8,44.8,405z"/>
		<path class="st0" d="M50.2,399.7l-2.5,2.5c-0.3,0.3-0.7,0.2-0.9,0c-0.3-0.3-0.2-0.7,0-0.9l2.5-2.5c0.3-0.3,0.7-0.2,0.9,0
			S50.5,399.4,50.2,399.7z"/>
	</g>
	<g>
		<path class="st0" d="M42.4,415.3c-0.1,0.1-0.1,0.1-0.2,0.1l-3.3,1.2c-0.3,0.1-0.7,0-0.8-0.4c-0.1-0.3,0-0.7,0.4-0.8l3.3-1.2
			c0.3-0.1,0.7,0,0.8,0.4C42.6,414.9,42.6,415.2,42.4,415.3z"/>
		<path class="st0" d="M50.1,412.5c-0.1,0.1-0.1,0.1-0.2,0.1L46,414c-0.3,0.1-0.7,0-0.8-0.4c-0.1-0.3,0-0.7,0.4-0.8l3.9-1.4
			c0.3-0.1,0.7,0,0.8,0.4C50.4,412,50.3,412.3,50.1,412.5z"/>
		<path class="st0" d="M57.3,409.8c-0.1,0.1-0.1,0.1-0.2,0.1l-3.3,1.2c-0.3,0.1-0.7,0-0.8-0.4c-0.1-0.3,0-0.7,0.4-0.8l3.3-1.2
			c0.3-0.1,0.7,0,0.8,0.4C57.6,409.4,57.5,409.6,57.3,409.8z"/>
	</g>
</g>
</svg>
