<svg version="1.1" id="Layer_1" xmlns="http://www.w3.org/2000/svg" xmlns:xlink="http://www.w3.org/1999/xlink" x="0px" y="0px"
	 viewBox="0 0 831.8 275.7" width="300px" height="100%" enable-background="new 0 0 831.8 275.7" xml:space="preserve">
<g>
	<defs>
		<rect id="SVGID_1_" width="831.8" height="275.7"/>
	</defs>
	<clipPath id="SVGID_2_">
		<use xlink:href="#SVGID_1_"  overflow="visible"/>
	</clipPath>
	<path clip-path="url(#SVGID_2_)" d="M118.6,40.8c-1.2,3-3.2,10.1-6.3,21.4c-3,11.2-7,26.9-11.9,46.9l6.1-0.6
		c11.5-8.2,22.1-16.8,31.8-25.7c9.8-9,18.7-18.4,26.9-28.2c16.6-19.8,25.5-36,26.5-48.5c0.3-3.4,1.1-5.2,2.4-5.5
		c0.7-0.2,1.2,0.5,1.6,2c0.2,0.8,0.3,1.5,0.3,2.1c0.9,14.5-6.3,31.7-21.4,51.6c-14,18.2-32.1,35.4-54.3,51.6c28.6-1,53,1.5,73.4,7.6
		c28.6,8.8,45.5,24.2,50.8,46.3c1.5,6.1,2,12.5,1.7,19c-0.1,3.1-1.1,4.8-2.9,5.2c-1.1,0.3-1.8-0.4-2.2-1.9c-0.1-0.4-0.1-1.2-0.1-2.3
		c0.2-4.5-0.2-8.8-1.1-12.9c-4.5-19-21.2-32.7-50-41.3c-24.5-7.3-53.4-10.1-86.5-8.4c-1.1,0.8-2.2,1.6-3.3,2.3
		c-1.1,0.7-2.3,1.4-3.4,2.1c-2.9,11.2-5.9,21.3-8.8,30.1c-2.9,8.8-5.8,16.6-8.7,23.4c11.7,4.4,23.6,5.2,35.8,2.3
		c8.6-2,13.9-5.5,15.9-10.5c0.2-0.8,0.8-0.9,1.6-0.4c1,0.5,1.3,1.1,1.1,1.7c-2.2,5.4-7.9,9.2-17.2,11.4c-13,3.1-25.7,2.4-38.1-2.2
		c-9.5,21.2-20.1,33.2-31.6,36.1c-3.9,1.1-7.7,1.4-11.4,1c-3.7-0.4-7.1-1.5-10.2-3.3c-3.1-1.8-5.7-4.1-8-7.1
		c-2.2-2.9-3.8-6.4-4.7-10.3c-0.2-0.8-0.4-1.6-0.5-2.5c-0.1-0.8-0.2-1.7-0.3-2.5c-0.1-2.4,0.7-3.9,2.7-4.3c1.1-0.3,1.8,0.3,2.1,1.7
		c0.2,0.7,0.2,1.9,0.2,3.6c0,1.7,0.1,3.1,0.4,4.2c1.3,5.3,4.8,9.4,10.5,12.2c5.5,2.6,11.5,2.7,18.1,0.5c9.4-3.4,17.9-14.2,25.4-32.4
		c-3.6-1.7-7.5-4.1-11.6-7c-0.8,1.6-1.8,3.6-3,5.9c-1.3,2.3-2.8,5-4.7,8c-4.4,7.7-7.2,11.7-8.4,11.9c-1.2,0.3-2-0.1-2.2-1.2
		c0-0.1,0.1-0.4,0.3-0.7c3.1-3.9,5.9-8,8.5-12.3c2.6-4.3,5-8.8,7.2-13.5c-5.8-4.2-11.4-9.6-17-16.1c-2.2,0.7-4.2,1.2-6.1,1.8
		c-1.9,0.5-3.8,0.9-5.8,1.3c-7,1.4-13.1,1.3-18.2-0.2c-5.1-1.5-8.1-4-8.9-7.4c-1.6-6.7,5.6-13.6,21.5-20.7
		c-6.7-12.2-11-23.6-13.1-34.1c-3.4-18.1-2.2-33.6,3.8-46.5c5.2-11.3,12.9-18.2,23-20.6c8.2-1.9,15.7-0.2,22.6,5.2
		c7.6,5.7,12.9,15,15.9,27.8c3.3,13.8,3.5,31.8,0.8,54.1c4-0.8,8.4-1.4,13.4-1.9c1.2-6.5,2.5-13.8,4-22c1.5-8.2,3.2-17.5,5-27.9
		c1.7-9.6,2.7-14.5,3-14.6c2.2-5.7,6.5-9.5,12.9-11.3c3-0.7,4.8,0,5.3,2.2C119.2,38,119.1,39.4,118.6,40.8 M70.8,112.7
		c2.3-21.6,1.9-39.3-1.4-53.1C66.6,47.8,62,39,55.4,33.3c-6-5.2-12.4-7-19.2-5.4c-8.6,2-15.1,8.4-19.4,19.1
		c-4.9,12.3-5.7,27-2.4,44.3c2.1,10.7,6.1,21.8,12,33C39.5,119.2,54.3,115.3,70.8,112.7 M25.5,132.1l-1.7,0.8
		c-3.3,1.2-5.8,2.9-7.5,5.1c-1.7,2.2-2.4,4.2-1.9,6c0.8,3.4,4.5,4.5,10.9,3.2c2.9-0.4,6-1.1,9.2-2.2
		C31.1,140.8,28.1,136.4,25.5,132.1 M69.8,121.2c-8.3,1.3-15.8,2.7-22.4,4.3c-6.6,1.6-12.5,3.3-17.7,5.1c1.3,2.4,2.7,4.8,4.2,7
		c1.5,2.2,3,4.4,4.7,6.5c3.3-1.1,7.4-2.6,12.3-4.7c4.8-2,10.6-4.6,17.2-7.8c0.3-1.7,0.6-3.4,1-5.1C69.2,124.7,69.5,123,69.8,121.2
		 M57.9,164.6c1.6-3.7,3-7.5,4.4-11.4c1.4-3.9,2.6-8,3.6-12.3c-4,2-7.9,3.7-11.6,5.4c-3.7,1.6-7.3,3-10.8,4.1
		C47.9,155.6,52.7,160.4,57.9,164.6 M71.8,173.9c2.3-5.6,4.4-11.9,6.4-18.9c2-7,4-14.9,6-23.6c-2.4,1.3-4.8,2.6-7.1,3.8
		c-2.3,1.3-4.6,2.5-6.9,3.8c-1.3,4.9-2.8,9.7-4.5,14.4c-1.7,4.7-3.5,9.1-5.4,13.3C63.8,169.3,67.7,171.7,71.8,173.9 M72.3,129.7
		c7.8-3.7,11.4-6.5,11-8.4c-0.3-1.4-3.4-1.6-9.2-0.6c-0.2,1.5-0.5,3-0.8,4.5C73,126.6,72.6,128.1,72.3,129.7"/>
	<path clip-path="url(#SVGID_2_)" fill="none" stroke="#000000" stroke-miterlimit="10" d="M118.6,40.8c-1.2,3-3.2,10.1-6.3,21.4
		c-3,11.2-7,26.9-11.9,46.9l6.1-0.6c11.5-8.2,22.1-16.8,31.8-25.7c9.8-9,18.7-18.4,26.9-28.2c16.6-19.8,25.5-36,26.5-48.5
		c0.3-3.4,1.1-5.2,2.4-5.5c0.7-0.2,1.2,0.5,1.6,2c0.2,0.8,0.3,1.5,0.3,2.1c0.9,14.5-6.3,31.7-21.4,51.6
		c-14,18.2-32.1,35.4-54.3,51.6c28.6-1,53,1.5,73.4,7.6c28.6,8.8,45.5,24.2,50.8,46.3c1.5,6.1,2,12.5,1.7,19
		c-0.1,3.1-1.1,4.8-2.9,5.2c-1.1,0.3-1.8-0.4-2.2-1.9c-0.1-0.4-0.1-1.2-0.1-2.3c0.2-4.5-0.2-8.8-1.1-12.9c-4.5-19-21.2-32.7-50-41.3
		c-24.5-7.3-53.4-10.1-86.5-8.4c-1.1,0.8-2.2,1.6-3.3,2.3c-1.1,0.7-2.3,1.4-3.4,2.1c-2.9,11.2-5.9,21.3-8.8,30.1
		c-2.9,8.8-5.8,16.6-8.7,23.4c11.7,4.4,23.6,5.2,35.8,2.3c8.6-2,13.9-5.5,15.9-10.5c0.2-0.8,0.8-0.9,1.6-0.4c1,0.5,1.3,1.1,1.1,1.7
		c-2.2,5.4-7.9,9.2-17.2,11.4c-13,3.1-25.7,2.4-38.1-2.2c-9.5,21.2-20.1,33.2-31.6,36.1c-3.9,1.1-7.7,1.4-11.4,1
		c-3.7-0.4-7.1-1.5-10.2-3.3c-3.1-1.8-5.7-4.1-8-7.1c-2.2-2.9-3.8-6.4-4.7-10.3c-0.2-0.8-0.4-1.6-0.5-2.5c-0.1-0.8-0.2-1.7-0.3-2.5
		c-0.1-2.4,0.7-3.9,2.7-4.3c1.1-0.3,1.8,0.3,2.1,1.7c0.2,0.7,0.2,1.9,0.2,3.6c0,1.7,0.1,3.1,0.4,4.2c1.3,5.3,4.8,9.4,10.5,12.2
		c5.5,2.6,11.5,2.7,18.1,0.5c9.4-3.4,17.9-14.2,25.4-32.4c-3.6-1.7-7.5-4.1-11.6-7c-0.8,1.6-1.8,3.6-3,5.9c-1.3,2.3-2.8,5-4.7,8
		c-4.4,7.7-7.2,11.7-8.4,11.9c-1.2,0.3-2-0.1-2.2-1.2c0-0.1,0.1-0.4,0.3-0.7c3.1-3.9,5.9-8,8.5-12.3c2.6-4.3,5-8.8,7.2-13.5
		c-5.8-4.2-11.4-9.6-17-16.1c-2.2,0.7-4.2,1.2-6.1,1.8c-1.9,0.5-3.8,0.9-5.8,1.3c-7,1.4-13.1,1.3-18.2-0.2c-5.1-1.5-8.1-4-8.9-7.4
		c-1.6-6.7,5.6-13.6,21.5-20.7c-6.7-12.2-11-23.6-13.1-34.1c-3.4-18.1-2.2-33.6,3.8-46.5c5.2-11.3,12.9-18.2,23-20.6
		c8.2-1.9,15.7-0.2,22.6,5.2c7.6,5.7,12.9,15,15.9,27.8c3.3,13.8,3.5,31.8,0.8,54.1c4-0.8,8.4-1.4,13.4-1.9c1.2-6.5,2.5-13.8,4-22
		c1.5-8.2,3.2-17.5,5-27.9c1.7-9.6,2.7-14.5,3-14.6c2.2-5.7,6.5-9.5,12.9-11.3c3-0.7,4.8,0,5.3,2.2C119.2,38,119.1,39.4,118.6,40.8z
		 M70.8,112.7c2.3-21.6,1.9-39.3-1.4-53.1C66.6,47.8,62,39,55.4,33.3c-6-5.2-12.4-7-19.2-5.4c-8.6,2-15.1,8.4-19.4,19.1
		c-4.9,12.3-5.7,27-2.4,44.3c2.1,10.7,6.1,21.8,12,33C39.5,119.2,54.3,115.3,70.8,112.7z M25.5,132.1l-1.7,0.8
		c-3.3,1.2-5.8,2.9-7.5,5.1c-1.7,2.2-2.4,4.2-1.9,6c0.8,3.4,4.5,4.5,10.9,3.2c2.9-0.4,6-1.1,9.2-2.2
		C31.1,140.8,28.1,136.4,25.5,132.1z M69.8,121.2c-8.3,1.3-15.8,2.7-22.4,4.3c-6.6,1.6-12.5,3.3-17.7,5.1c1.3,2.4,2.7,4.8,4.2,7
		c1.5,2.2,3,4.4,4.7,6.5c3.3-1.1,7.4-2.6,12.3-4.7c4.8-2,10.6-4.6,17.2-7.8c0.3-1.7,0.6-3.4,1-5.1C69.2,124.7,69.5,123,69.8,121.2z
		 M57.9,164.6c1.6-3.7,3-7.5,4.4-11.4c1.4-3.9,2.6-8,3.6-12.3c-4,2-7.9,3.7-11.6,5.4c-3.7,1.6-7.3,3-10.8,4.1
		C47.9,155.6,52.7,160.4,57.9,164.6z M71.8,173.9c2.3-5.6,4.4-11.9,6.4-18.9c2-7,4-14.9,6-23.6c-2.4,1.3-4.8,2.6-7.1,3.8
		c-2.3,1.3-4.6,2.5-6.9,3.8c-1.3,4.9-2.8,9.7-4.5,14.4c-1.7,4.7-3.5,9.1-5.4,13.3C63.8,169.3,67.7,171.7,71.8,173.9z M72.3,129.7
		c7.8-3.7,11.4-6.5,11-8.4c-0.3-1.4-3.4-1.6-9.2-0.6c-0.2,1.5-0.5,3-0.8,4.5C73,126.6,72.6,128.1,72.3,129.7z"/>
	<path clip-path="url(#SVGID_2_)" d="M237.7,192c3.7-8.9,7.2-17.8,10.7-26.7c3.5-8.9,6.8-18,10-27.1c2.3-7.3,6.2-18.7,11.6-34.2
		c-2.2-0.4-4.4-0.6-6.7-0.5c-5.9,0.3-10.5,1.5-13.9,3.7c-4.3,2.7-5.6,6.6-4.1,11.4c0.4,1.6-0.2,2.6-1.7,2.8c-1,0.1-1.7-1.2-2.1-4
		c-0.8-5.3,0.9-9.6,5.1-13.1c4.2-3.4,9.9-5.4,17.2-5.9c1.4-0.1,2.8,0,4,0.1c1.3,0.1,2.6,0.2,4.1,0.3c8.3-18.9,18.4-29.2,30.2-30.9
		c5.1-0.7,8,1.1,8.7,5.5c0.4,3.1,0,4.7-1.2,4.9c-0.8,0.1-1.2-0.4-1.1-1.5c-0.1-4.8-2.1-6.9-5.8-6.4c-7.1,1-14.4,11.2-21.9,30.6
		c7.3,2.5,13.3,6.5,17.9,12.1c5,5.9,8,12.3,8.9,19.1c1.5,10.3-1.1,18.7-7.8,25.4c7.5-2.8,14.9-7.1,22.1-13
		c6.6-5.2,11.9-10.5,15.8-15.9c0.6-0.8,1.2-1.2,1.7-1.3c0.8-0.1,1.3,0.3,1.5,1.3c0.2,1.4-0.3,2.7-1.6,3.8
		c-6.5,7.7-14.1,14.5-22.8,20.3c-9.7,6.4-18.5,10.1-26.4,11.3c-11.4,1.7-20.2-2.1-26.5-11.2c-2.3,6.6-4.8,13.4-7.6,20.4
		c-2.7,7.1-5.7,14.5-8.8,22.3c-6.3,15.5-13.6,27.4-22,35.7c-9.9,9.9-22.2,16-36.9,18.1c-8.5,1.2-15.4-0.2-20.8-4.2
		c-5-3.5-8-8.4-8.9-14.6c-0.9-6.1,0.5-11.8,4.3-17.2c0.4-0.9,1.1-1.4,1.9-1.6c1-0.1,1.5,0.3,1.7,1.2c0.1,0.7-0.2,1.5-0.9,2.5
		c-2.6,3.5-3.5,7.9-2.7,13.4c0.8,5.3,3,9.5,6.7,12.6c4.5,3.6,10.1,4.9,16.7,3.9c5-0.7,9.9-2.5,14.6-5.3c4.8-2.8,9.4-6.6,13.8-11.2
		c4.4-4.7,8.6-10.1,12.4-16.3C231,206.4,234.5,199.5,237.7,192 M278.5,107c-2.7,8.5-6.4,19.7-10.8,33.7c-0.5,1.6-1,3.2-1.5,4.6
		c-0.5,1.4-1,2.9-1.5,4.4c5,7.3,11.1,10.5,18.2,9.5c2.5-0.4,4.8-1.3,6.9-2.7c2.1-1.4,3.9-3.3,5.5-5.6c1.5-2.3,2.6-4.8,3.3-7.6
		c0.7-2.8,0.8-5.8,0.3-9c-0.7-4.6-2.4-8.9-5.3-13C289.3,115,284.3,110.3,278.5,107"/>
	<path clip-path="url(#SVGID_2_)" fill="none" stroke="#000000" stroke-miterlimit="10" d="M237.7,192c3.7-8.9,7.2-17.8,10.7-26.7
		c3.5-8.9,6.8-18,10-27.1c2.3-7.3,6.2-18.7,11.6-34.2c-2.2-0.4-4.4-0.6-6.7-0.5c-5.9,0.3-10.5,1.5-13.9,3.7
		c-4.3,2.7-5.6,6.6-4.1,11.4c0.4,1.6-0.2,2.6-1.7,2.8c-1,0.1-1.7-1.2-2.1-4c-0.8-5.3,0.9-9.6,5.1-13.1c4.2-3.4,9.9-5.4,17.2-5.9
		c1.4-0.1,2.8,0,4,0.1c1.3,0.1,2.6,0.2,4.1,0.3c8.3-18.9,18.4-29.2,30.2-30.9c5.1-0.7,8,1.1,8.7,5.5c0.4,3.1,0,4.7-1.2,4.9
		c-0.8,0.1-1.2-0.4-1.1-1.5c-0.1-4.8-2.1-6.9-5.8-6.4c-7.1,1-14.4,11.2-21.9,30.6c7.3,2.5,13.3,6.5,17.9,12.1c5,5.9,8,12.3,8.9,19.1
		c1.5,10.3-1.1,18.7-7.8,25.4c7.5-2.8,14.9-7.1,22.1-13c6.6-5.2,11.9-10.5,15.8-15.9c0.6-0.8,1.2-1.2,1.7-1.3
		c0.8-0.1,1.3,0.3,1.5,1.3c0.2,1.4-0.3,2.7-1.6,3.8c-6.5,7.7-14.1,14.5-22.8,20.3c-9.7,6.4-18.5,10.1-26.4,11.3
		c-11.4,1.7-20.2-2.1-26.5-11.2c-2.3,6.6-4.8,13.4-7.6,20.4c-2.7,7.1-5.7,14.5-8.8,22.3c-6.3,15.5-13.6,27.4-22,35.7
		c-9.9,9.9-22.2,16-36.9,18.1c-8.5,1.2-15.4-0.2-20.8-4.2c-5-3.5-8-8.4-8.9-14.6c-0.9-6.1,0.5-11.8,4.3-17.2
		c0.4-0.9,1.1-1.4,1.9-1.6c1-0.1,1.5,0.3,1.7,1.2c0.1,0.7-0.2,1.5-0.9,2.5c-2.6,3.5-3.5,7.9-2.7,13.4c0.8,5.3,3,9.5,6.7,12.6
		c4.5,3.6,10.1,4.9,16.7,3.9c5-0.7,9.9-2.5,14.6-5.3c4.8-2.8,9.4-6.6,13.8-11.2c4.4-4.7,8.6-10.1,12.4-16.3
		C231,206.4,234.5,199.5,237.7,192z M278.5,107c-2.7,8.5-6.4,19.7-10.8,33.7c-0.5,1.6-1,3.2-1.5,4.6c-0.5,1.4-1,2.9-1.5,4.4
		c5,7.3,11.1,10.5,18.2,9.5c2.5-0.4,4.8-1.3,6.9-2.7c2.1-1.4,3.9-3.3,5.5-5.6c1.5-2.3,2.6-4.8,3.3-7.6c0.7-2.8,0.8-5.8,0.3-9
		c-0.7-4.6-2.4-8.9-5.3-13C289.3,115,284.3,110.3,278.5,107z"/>
	<path clip-path="url(#SVGID_2_)" d="M379.5,95.7c0.6-2.3,2.5-3.6,5.6-3.9c3.1-0.3,4.7,0.7,4.9,2.9c1.2,9.6,0,26.5-3.6,50.8
		c5.4-1.3,10-1.9,13.8-1.7c10.6,0.3,16.1,3.3,16.7,9c0.3,3.5-1.4,7.4-5.3,11.7c-0.5,0.6-1,0.9-1.6,1c-0.8,0.1-1.3-0.2-1.4-0.9
		c-0.1-0.6,0.2-1.1,0.7-1.8c2.7-2.9,3.9-5.6,3.7-7.9c-0.4-4.6-5.2-6.5-14.5-5.6c-1.5,0.3-3.4,0.6-5.6,1c-2.2,0.4-4.8,1-7.7,1.7
		c-5.4,32-16.7,58.4-33.9,79.1c-9.5,11.7-20.6,21.4-33.5,29c-13.9,8.6-27.7,13.5-41.5,14.8c-10.5,1-19-0.9-25.6-5.6
		c-6.6-4.7-10.3-11.2-11.1-19.6c-0.9-9.8,3.1-20.2,11.9-31.3c9.7-12.3,24.5-24,44.2-35.1c19.8-11.1,45.7-22.4,77.9-33.8
		c0.7-4.7,1.5-10.6,2.3-17.5c0.8-7,1.8-15.2,2.9-24.6c-8.2,19.8-17.4,34.1-27.7,43.1c-3.1,2.8-6,4.4-8.7,4.6c-4.5,0.4-7-2.2-7.5-8
		c-0.7-8,3.2-21.7,11.6-41.2c0.6-1.3,1.8-2.7,3.7-4c1.9-1.4,3.6-2.1,5-2.3c1.1-0.1,1.7,0.3,1.8,1.1c0,0.1-0.1,0.6-0.3,1.5
		c-1.3,2.8-2.8,6.5-4.6,11.1c-1.8,4.6-3.8,10.2-6.2,16.7c-1.5,5.3-2.1,9.6-1.8,12.8c0.3,2.9,1.3,4.3,3.1,4.1
		c2.1-0.2,5.3-2.9,9.6-8.1C362.5,132.6,370,118.1,379.5,95.7 M372.9,155.7c-14.7,5.6-25.9,10-33.6,13.2c-8.1,3.4-15.6,6.7-22.5,10
		c-6.9,3.2-13.2,6.5-18.9,9.9c-8.2,4.7-15.3,9.6-21.5,14.7c-6.1,5.1-11.2,10.6-15.2,16.3c-7,10.1-10,19.4-9.3,28.1
		c0.7,7.5,3.8,13.1,9.4,16.8c5.5,3.6,12.6,5.1,21.1,4.3c17.9-1.6,35.1-11.4,51.8-29.2C353.8,218.3,366.7,190.3,372.9,155.7"/>
	<path clip-path="url(#SVGID_2_)" fill="none" stroke="#000000" stroke-miterlimit="10" d="M379.5,95.7c0.6-2.3,2.5-3.6,5.6-3.9
		c3.1-0.3,4.7,0.7,4.9,2.9c1.2,9.6,0,26.5-3.6,50.8c5.4-1.3,10-1.9,13.8-1.7c10.6,0.3,16.1,3.3,16.7,9c0.3,3.5-1.4,7.4-5.3,11.7
		c-0.5,0.6-1,0.9-1.6,1c-0.8,0.1-1.3-0.2-1.4-0.9c-0.1-0.6,0.2-1.1,0.7-1.8c2.7-2.9,3.9-5.6,3.7-7.9c-0.4-4.6-5.2-6.5-14.5-5.6
		c-1.5,0.3-3.4,0.6-5.6,1c-2.2,0.4-4.8,1-7.7,1.7c-5.4,32-16.7,58.4-33.9,79.1c-9.5,11.7-20.6,21.4-33.5,29
		c-13.9,8.6-27.7,13.5-41.5,14.8c-10.5,1-19-0.9-25.6-5.6c-6.6-4.7-10.3-11.2-11.1-19.6c-0.9-9.8,3.1-20.2,11.9-31.3
		c9.7-12.3,24.5-24,44.2-35.1c19.8-11.1,45.7-22.4,77.9-33.8c0.7-4.7,1.5-10.6,2.3-17.5c0.8-7,1.8-15.2,2.9-24.6
		c-8.2,19.8-17.4,34.1-27.7,43.1c-3.1,2.8-6,4.4-8.7,4.6c-4.5,0.4-7-2.2-7.5-8c-0.7-8,3.2-21.7,11.6-41.2c0.6-1.3,1.8-2.7,3.7-4
		c1.9-1.4,3.6-2.1,5-2.3c1.1-0.1,1.7,0.3,1.8,1.1c0,0.1-0.1,0.6-0.3,1.5c-1.3,2.8-2.8,6.5-4.6,11.1c-1.8,4.6-3.8,10.2-6.2,16.7
		c-1.5,5.3-2.1,9.6-1.8,12.8c0.3,2.9,1.3,4.3,3.1,4.1c2.1-0.2,5.3-2.9,9.6-8.1C362.5,132.6,370,118.1,379.5,95.7z M372.9,155.7
		c-14.7,5.6-25.9,10-33.6,13.2c-8.1,3.4-15.6,6.7-22.5,10c-6.9,3.2-13.2,6.5-18.9,9.9c-8.2,4.7-15.3,9.6-21.5,14.7
		c-6.1,5.1-11.2,10.6-15.2,16.3c-7,10.1-10,19.4-9.3,28.1c0.7,7.5,3.8,13.1,9.4,16.8c5.5,3.6,12.6,5.1,21.1,4.3
		c17.9-1.6,35.1-11.4,51.8-29.2C353.8,218.3,366.7,190.3,372.9,155.7z"/>
	<path clip-path="url(#SVGID_2_)" d="M596.3,121.8c-17.1,18-33.8,27-50,27c-12.3,0-18.5-6.6-18.5-20c0-0.8,0-1.7,0-2.6
		c0-0.9,0.1-1.9,0.4-2.8c-12.9,14.7-21.9,22.1-26.9,22.1c-2.4,0-2.3-5.1,0.2-15.4c1.1-3.6,2.2-7.4,3.2-11.3c1-3.9,2.1-7.8,3.2-11.9
		c1.4-6,1.2-9-0.6-9c-0.4,0-0.9,0.2-1.6,0.6s-1.7,1.4-3.3,2.9c-1.5,1.5-3.6,3.9-6.3,7.1c-2.7,3.2-6.2,7.5-10.7,12.9
		c-1.1,1.7-2.3,3.4-3.6,5.2c-1.3,1.8-2.7,3.6-4.2,5.6c-2.4,2.8-5.1,5.3-8.1,7.4c-3,2.1-6.1,3.9-9.2,5.3c-3.2,1.4-6.2,2.5-9.3,3.3
		c-3,0.8-5.6,1.2-7.9,1.2c-7.3,0-10.9-3.1-10.9-9.5c0-2.2,0.9-5.1,2.7-8.6c0.7-1.4,1.4-2.6,2.1-3.7c0.7-1.1,1.3-1.9,1.9-2.6
		c1.1-0.7,1.8-1.1,1.9-1.1c1.1,0,1.3,1.1,0.4,3.2c-0.7,1.4-1.3,2.6-1.8,3.7c-0.5,1.1-0.7,2.1-0.7,3.3c0,1.3,0.4,2.6,1.2,4
		c0.8,1.4,1.9,2.2,3.5,2.5c2.8,0.6,6.4-0.2,10.7-2.4c4.3-2.2,8.6-5.2,12.7-9c4.1-3.8,7.7-8.2,10.6-13.2c2.9-5,4.4-9.9,4.4-14.8
		c0-8-4.3-12-12.8-12c-3.5,0-7,1.1-10.4,3.4c-3.4,2.2-6.8,5-10.1,8.2c-3.3,3.2-6.5,6.7-9.7,10.4c-3.2,3.7-6.1,7.1-8.9,10
		c-1.5,1.3-2.7,1.9-3.6,1.9c-0.7-0.3-1.1-0.8-1.1-1.5c0-0.7,0.3-1.6,1-2.7c3.6-4.1,7.3-8.2,11-12.3c3.7-4.1,7.5-7.9,11.2-11.2
		c3.8-3.3,7.6-6,11.6-8c3.9-2,8-3.1,12.2-3.1c12.5,0,18.7,6.5,18.7,19.5c0,1.8-0.2,3.8-0.6,5.9c3.1-3.4,6.7-7.4,10.7-12
		c10.4-12.1,17.4-18.1,21.2-18.1c2.1,0,1.7,4.5-1.2,13.5c-1.5,4.4-3,8.6-4.4,12.8c-1.4,4.2-2.9,8.6-4.4,13c-3.1,9-3.4,13.5-1,13.5
		c2.1,0,6.4-3.3,13-9.9c1.1-1.1,2.2-2.2,3.3-3.4c1.1-1.1,2.1-2.2,3-3.4c1.1-2.7,2.6-5.3,4.3-7.9c1.8-2.6,3.7-5.2,6-7.9
		c9.5-11.2,18.6-16.8,27.3-16.9c7.2,0,10.7,3.2,10.7,9.7c0,2.2-0.8,5.1-2.5,8.6c-0.7,1.5-1.4,2.8-2.1,3.9c-0.7,1.1-1.3,1.9-1.9,2.6
		c-0.7,0.7-1.3,1.1-1.7,1.1c-1.4,0-1.5-1.1-0.4-3.2c1.5-2.8,2.3-5.1,2.3-6.9c0-2.7-1.6-4-4.8-4c-4.2,0-8.5,1.7-12.8,5.1
		c-2.8,2.1-5.3,4.5-7.6,7.2c-2.2,2.7-4.2,5.4-5.8,8.2c-1.6,2.8-2.8,5.6-3.7,8.4c-0.8,2.8-1.3,5.5-1.3,8c0,8.1,4.2,12.2,12.6,12.2
		c4.5,0,9.9-1.3,16.2-3.8c8.5-3.5,17.7-10.3,27.3-20.4c1.4-1.4,2.5-2.1,3.4-2.1c0.7,0.3,1.1,0.8,1.1,1.5
		C597.3,119.7,597,120.7,596.3,121.8"/>
	<path clip-path="url(#SVGID_2_)" fill="none" stroke="#000000" stroke-miterlimit="10" d="M596.3,121.8c-17.1,18-33.8,27-50,27
		c-12.3,0-18.5-6.6-18.5-20c0-0.8,0-1.7,0-2.6c0-0.9,0.1-1.9,0.4-2.8c-12.9,14.7-21.9,22.1-26.9,22.1c-2.4,0-2.3-5.1,0.2-15.4
		c1.1-3.6,2.2-7.4,3.2-11.3c1-3.9,2.1-7.8,3.2-11.9c1.4-6,1.2-9-0.6-9c-0.4,0-0.9,0.2-1.6,0.6s-1.7,1.4-3.3,2.9
		c-1.5,1.5-3.6,3.9-6.3,7.1c-2.7,3.2-6.2,7.5-10.7,12.9c-1.1,1.7-2.3,3.4-3.6,5.2c-1.3,1.8-2.7,3.6-4.2,5.6
		c-2.4,2.8-5.1,5.3-8.1,7.4c-3,2.1-6.1,3.9-9.2,5.3c-3.2,1.4-6.2,2.5-9.3,3.3c-3,0.8-5.6,1.2-7.9,1.2c-7.3,0-10.9-3.1-10.9-9.5
		c0-2.2,0.9-5.1,2.7-8.6c0.7-1.4,1.4-2.6,2.1-3.7c0.7-1.1,1.3-1.9,1.9-2.6c1.1-0.7,1.8-1.1,1.9-1.1c1.1,0,1.3,1.1,0.4,3.2
		c-0.7,1.4-1.3,2.6-1.8,3.7c-0.5,1.1-0.7,2.1-0.7,3.3c0,1.3,0.4,2.6,1.2,4c0.8,1.4,1.9,2.2,3.5,2.5c2.8,0.6,6.4-0.2,10.7-2.4
		c4.3-2.2,8.6-5.2,12.7-9c4.1-3.8,7.7-8.2,10.6-13.2c2.9-5,4.4-9.9,4.4-14.8c0-8-4.3-12-12.8-12c-3.5,0-7,1.1-10.4,3.4
		c-3.4,2.2-6.8,5-10.1,8.2c-3.3,3.2-6.5,6.7-9.7,10.4c-3.2,3.7-6.1,7.1-8.9,10c-1.5,1.3-2.7,1.9-3.6,1.9c-0.7-0.3-1.1-0.8-1.1-1.5
		c0-0.7,0.3-1.6,1-2.7c3.6-4.1,7.3-8.2,11-12.3c3.7-4.1,7.5-7.9,11.2-11.2c3.8-3.3,7.6-6,11.6-8c3.9-2,8-3.1,12.2-3.1
		c12.5,0,18.7,6.5,18.7,19.5c0,1.8-0.2,3.8-0.6,5.9c3.1-3.4,6.7-7.4,10.7-12c10.4-12.1,17.4-18.1,21.2-18.1c2.1,0,1.7,4.5-1.2,13.5
		c-1.5,4.4-3,8.6-4.4,12.8c-1.4,4.2-2.9,8.6-4.4,13c-3.1,9-3.4,13.5-1,13.5c2.1,0,6.4-3.3,13-9.9c1.1-1.1,2.2-2.2,3.3-3.4
		c1.1-1.1,2.1-2.2,3-3.4c1.1-2.7,2.6-5.3,4.3-7.9c1.8-2.6,3.7-5.2,6-7.9c9.5-11.2,18.6-16.8,27.3-16.9c7.2,0,10.7,3.2,10.7,9.7
		c0,2.2-0.8,5.1-2.5,8.6c-0.7,1.5-1.4,2.8-2.1,3.9c-0.7,1.1-1.3,1.9-1.9,2.6c-0.7,0.7-1.3,1.1-1.7,1.1c-1.4,0-1.5-1.1-0.4-3.2
		c1.5-2.8,2.3-5.1,2.3-6.9c0-2.7-1.6-4-4.8-4c-4.2,0-8.5,1.7-12.8,5.1c-2.8,2.1-5.3,4.5-7.6,7.2c-2.2,2.7-4.2,5.4-5.8,8.2
		c-1.6,2.8-2.8,5.6-3.7,8.4c-0.8,2.8-1.3,5.5-1.3,8c0,8.1,4.2,12.2,12.6,12.2c4.5,0,9.9-1.3,16.2-3.8c8.5-3.5,17.7-10.3,27.3-20.4
		c1.4-1.4,2.5-2.1,3.4-2.1c0.7,0.3,1.1,0.8,1.1,1.5C597.3,119.7,597,120.7,596.3,121.8z"/>
	<path clip-path="url(#SVGID_2_)" d="M664.6,132c-5.6,5.6-14.2,10.7-25.6,15.2c-12.6,5.1-23.4,7.2-32.3,6.3
		c-13-1.3-18.8-9.1-17.3-23.3c0.5-5.2,2.9-11.1,7.1-17.9c4.2-7.2,9.3-13,15.1-17.5c6.6-5.1,12.5-7.4,17.8-6.9
		c7,0.7,10.1,4.5,9.4,11.3c-0.4,4.2-2.7,8.5-6.8,12.9c-7.2,7.3-17.1,11.9-29.7,13.7c-0.8,2.3-1.3,4.8-1.6,7.5
		c-0.9,9.5,3,14.7,11.8,15.5c7,0.7,15.9-1.3,26.8-6c5-2.2,9.4-4.4,13.1-6.6c3.7-2.2,6.9-4.6,9.6-7c2.9-2.5,4.3-2.5,4,0
		C665.8,130,665.4,131,664.6,132 M628,108.5c3.1-4.2,4.8-7.9,5.1-11.1c0.2-2.5-0.5-3.9-2.1-4c-2.9-0.3-7.3,2.7-13.2,9
		c-5.7,6.5-10.4,13.1-14,19.7C615.2,119.8,623.2,115.2,628,108.5"/>
	<path clip-path="url(#SVGID_2_)" fill="none" stroke="#000000" stroke-miterlimit="10" d="M664.6,132c-5.6,5.6-14.2,10.7-25.6,15.2
		c-12.6,5.1-23.4,7.2-32.3,6.3c-13-1.3-18.8-9.1-17.3-23.3c0.5-5.2,2.9-11.1,7.1-17.9c4.2-7.2,9.3-13,15.1-17.5
		c6.6-5.1,12.5-7.4,17.8-6.9c7,0.7,10.1,4.5,9.4,11.3c-0.4,4.2-2.7,8.5-6.8,12.9c-7.2,7.3-17.1,11.9-29.7,13.7
		c-0.8,2.3-1.3,4.8-1.6,7.5c-0.9,9.5,3,14.7,11.8,15.5c7,0.7,15.9-1.3,26.8-6c5-2.2,9.4-4.4,13.1-6.6c3.7-2.2,6.9-4.6,9.6-7
		c2.9-2.5,4.3-2.5,4,0C665.8,130,665.4,131,664.6,132z M628,108.5c3.1-4.2,4.8-7.9,5.1-11.1c0.2-2.5-0.5-3.9-2.1-4
		c-2.9-0.3-7.3,2.7-13.2,9c-5.7,6.5-10.4,13.1-14,19.7C615.2,119.8,623.2,115.2,628,108.5z"/>
	<path clip-path="url(#SVGID_2_)" d="M725.9,128.1c-1.6,9.3-6.8,18-15.5,26.3c11.5,0.2,22.7-3.7,33.7-11.6c1.2-0.5,2-0.7,2.3-0.7
		c0.8,0.1,1.2,0.7,1,1.7c-0.2,1.2-1.1,2.2-2.7,2.9c-13.8,8.5-26.7,12.5-38.8,11.7c-9.8,7.4-19.4,10.3-28.6,8.6
		c-10.6-1.9-15-8.3-13.1-19.2c0.6-3.6,2-7.7,4.1-12.3c-6.1-9.8-8.2-20-6.4-30.6c1.2-6.9,4.2-12.4,9.1-16.5c5.4-4.2,12.1-5.6,20-4.2
		c3,0.5,5.9,1.3,8.6,2.4c1.8-2.8,3.4-5.6,5-8.3c1.5-2.7,3.3-5.5,5.1-8.5c1.9-2.9,4-6.1,6.2-9.4c2.3-3.3,5.1-6.9,8.3-10.9
		c20-25.2,35.4-37.1,46.2-35.6c6.4,1,8.9,5.1,7.7,12.2c-0.6,3.3-1.9,6.6-3.9,10c-4.9,9-12.3,18.2-22.4,27.8
		c-10.1,9.5-23.3,19.3-39.5,29.2C723.8,102.3,728.3,114,725.9,128.1 M678.6,93c-4.4,3.1-7.1,7.9-8.3,14.3c-1,5.9-0.3,12.5,2.1,19.6
		c2.3-4.3,5.3-9.1,8.8-14.4c3.6-5.3,7.9-11.3,13.1-18.1c0.4-0.6,0.8-1.3,1.2-1.9c0.4-0.6,0.8-1.3,1.2-1.9
		C689.8,89,683.7,89.8,678.6,93 M694,156.2c-7.4-2.4-13.8-6.5-19.2-12.1c-0.9,2-1.6,4.4-2.1,7.3c-1.2,6.8,0.4,10.5,4.6,11.3
		C681.5,163.4,687.1,161.2,694,156.2 M707.8,95.8l-0.4-0.1c-3.6,4.3-7.2,8.7-10.8,13.2c-3.6,4.4-7,9.1-10.2,13.9
		c-1.6,2.4-3.1,4.8-4.6,7.1c-1.5,2.3-2.8,4.6-3.9,7c5.8,7.7,12.7,12.9,20.7,15.6c1.4-1.3,2.7-2.6,4-3.9c1.3-1.3,2.4-2.6,3.4-4
		c6.2-8.4,10-16.6,11.4-24.5c2.1-11.7-1-20-9.1-24.7L707.8,95.8z M767.6,34.2c2.3-4,3.6-7.2,4-9.5c0.6-3.5-0.3-5.4-2.6-5.8
		c-3.9-0.7-8.8,2.7-14.8,10c-16.1,19.4-30.7,39.5-44,60.4c5.2-3.6,10.4-7.5,15.6-11.7c5.2-4.1,10.4-8.6,15.5-13.4
		C753.8,52.7,762.5,42.7,767.6,34.2"/>
	<path clip-path="url(#SVGID_2_)" fill="none" stroke="#000000" stroke-miterlimit="10" d="M725.9,128.1c-1.6,9.3-6.8,18-15.5,26.3
		c11.5,0.2,22.7-3.7,33.7-11.6c1.2-0.5,2-0.7,2.3-0.7c0.8,0.1,1.2,0.7,1,1.7c-0.2,1.2-1.1,2.2-2.7,2.9
		c-13.8,8.5-26.7,12.5-38.8,11.7c-9.8,7.4-19.4,10.3-28.6,8.6c-10.6-1.9-15-8.3-13.1-19.2c0.6-3.6,2-7.7,4.1-12.3
		c-6.1-9.8-8.2-20-6.4-30.6c1.2-6.9,4.2-12.4,9.1-16.5c5.4-4.2,12.1-5.6,20-4.2c3,0.5,5.9,1.3,8.6,2.4c1.8-2.8,3.4-5.6,5-8.3
		c1.5-2.7,3.3-5.5,5.1-8.5c1.9-2.9,4-6.1,6.2-9.4c2.3-3.3,5.1-6.9,8.3-10.9c20-25.2,35.4-37.1,46.2-35.6c6.4,1,8.9,5.1,7.7,12.2
		c-0.6,3.3-1.9,6.6-3.9,10c-4.9,9-12.3,18.2-22.4,27.8c-10.1,9.5-23.3,19.3-39.5,29.2C723.8,102.3,728.3,114,725.9,128.1z M678.6,93
		c-4.4,3.1-7.1,7.9-8.3,14.3c-1,5.9-0.3,12.5,2.1,19.6c2.3-4.3,5.3-9.1,8.8-14.4c3.6-5.3,7.9-11.3,13.1-18.1
		c0.4-0.6,0.8-1.3,1.2-1.9c0.4-0.6,0.8-1.3,1.2-1.9C689.8,89,683.7,89.8,678.6,93z M694,156.2c-7.4-2.4-13.8-6.5-19.2-12.1
		c-0.9,2-1.6,4.4-2.1,7.3c-1.2,6.8,0.4,10.5,4.6,11.3C681.5,163.4,687.1,161.2,694,156.2z M707.8,95.8l-0.4-0.1
		c-3.6,4.3-7.2,8.7-10.8,13.2c-3.6,4.4-7,9.1-10.2,13.9c-1.6,2.4-3.1,4.8-4.6,7.1c-1.5,2.3-2.8,4.6-3.9,7
		c5.8,7.7,12.7,12.9,20.7,15.6c1.4-1.3,2.7-2.6,4-3.9c1.3-1.3,2.4-2.6,3.4-4c6.2-8.4,10-16.6,11.4-24.5c2.1-11.7-1-20-9.1-24.7
		L707.8,95.8z M767.6,34.2c2.3-4,3.6-7.2,4-9.5c0.6-3.5-0.3-5.4-2.6-5.8c-3.9-0.7-8.8,2.7-14.8,10c-16.1,19.4-30.7,39.5-44,60.4
		c5.2-3.6,10.4-7.5,15.6-11.7c5.2-4.1,10.4-8.6,15.5-13.4C753.8,52.7,762.5,42.7,767.6,34.2z"/>
	<path clip-path="url(#SVGID_2_)" d="M829.2,169.9c-20.4,12.4-36,16.5-46.8,12.2c-3.5-1.4-6.3-4.6-8.3-9.5
		c-1.8-5.4-2.2-11.7-0.9-18.8c-3.5,2.8-7,5.3-10.5,7.5c-3.4,2.2-7,4.1-10.6,5.7c-6.6,2.8-11.7,3.8-15.2,2.8c-5-1.4-6.6-5.2-4.9-11.6
		c1.5-5.4,4.9-10.5,10.3-15.3c12.5-11,24.9-17.5,37.3-19.6c5.3-0.9,10-0.7,14.1,0.4c1.1,0.3,2.2,0.8,3.4,1.5
		c1.2,0.7,2.3,1.5,3.3,2.4c1,0.9,1.7,1.9,2.3,2.9c0.5,1,0.6,2.1,0.3,3.1c-0.1,0.4-0.5,0.7-1,0.9c-0.6,0.2-1.2,0.3-1.8,0.4
		c-0.7,0-1.3,0.1-1.9,0.2c-0.6,0.1-0.9,0.3-1,0.4c-7.5,7.7-12.4,15.6-14.6,23.9c-2.8,10.3-0.3,16.5,7.7,18.7
		c8.4,2.3,20.7-1.5,37-11.4c1.3-1,2.4-1.3,3.3-1c0.7,0.2,0.9,0.8,0.6,1.7C830.9,168.5,830.2,169.4,829.2,169.9 M786,129.3
		c-11.2-3.4-23,1.8-35.5,15.5c-3.5,3.7-5.7,7.2-6.6,10.6c-1,3.7-0.2,5.8,2.3,6.5c2.4,0.7,6.1-0.1,10.9-2.2c8.7-4,14.9-8.7,18.7-14
		C778.6,139.2,782,133.7,786,129.3"/>
	<path clip-path="url(#SVGID_2_)" fill="none" stroke="#000000" stroke-miterlimit="10" d="M829.2,169.9
		c-20.4,12.4-36,16.5-46.8,12.2c-3.5-1.4-6.3-4.6-8.3-9.5c-1.8-5.4-2.2-11.7-0.9-18.8c-3.5,2.8-7,5.3-10.5,7.5
		c-3.4,2.2-7,4.1-10.6,5.7c-6.6,2.8-11.7,3.8-15.2,2.8c-5-1.4-6.6-5.2-4.9-11.6c1.5-5.4,4.9-10.5,10.3-15.3
		c12.5-11,24.9-17.5,37.3-19.6c5.3-0.9,10-0.7,14.1,0.4c1.1,0.3,2.2,0.8,3.4,1.5c1.2,0.7,2.3,1.5,3.3,2.4c1,0.9,1.7,1.9,2.3,2.9
		c0.5,1,0.6,2.1,0.3,3.1c-0.1,0.4-0.5,0.7-1,0.9c-0.6,0.2-1.2,0.3-1.8,0.4c-0.7,0-1.3,0.1-1.9,0.2c-0.6,0.1-0.9,0.3-1,0.4
		c-7.5,7.7-12.4,15.6-14.6,23.9c-2.8,10.3-0.3,16.5,7.7,18.7c8.4,2.3,20.7-1.5,37-11.4c1.3-1,2.4-1.3,3.3-1c0.7,0.2,0.9,0.8,0.6,1.7
		C830.9,168.5,830.2,169.4,829.2,169.9z M786,129.3c-11.2-3.4-23,1.8-35.5,15.5c-3.5,3.7-5.7,7.2-6.6,10.6c-1,3.7-0.2,5.8,2.3,6.5
		c2.4,0.7,6.1-0.1,10.9-2.2c8.7-4,14.9-8.7,18.7-14C778.6,139.2,782,133.7,786,129.3z"/>
</g>
</svg>
