<svg width="18px" height="18px" viewBox="0 0 18 18" version="1.1" xmlns="http://www.w3.org/2000/svg" xmlns:xlink="http://www.w3.org/1999/xlink">
    <g id="Page-1" stroke="none" stroke-width="1" fill="none" fill-rule="evenodd">
        <g id="noun_208718_cc">
            <g id="Group">
                <path d="M16.5,18 L1.5,18 C1.293,18 1.125,17.832375 1.125,17.625 L1.125,8.625 C1.125,8.417625 1.293,8.25 1.5,8.25 C1.707,8.25 1.875,8.417625 1.875,8.625 L1.875,17.25 L16.125,17.25 L16.125,10.875 C16.125,10.667625 16.293,10.5 16.5,10.5 C16.707,10.5 16.875,10.667625 16.875,10.875 L16.875,17.625 C16.875,17.832375 16.707,18 16.5,18 L16.5,18 Z" id="Shape" fill="#fff"></path>
                <path d="M17.625,9 L0.375,9 C0.168,9 0,8.832375 0,8.625 L0,8.25 C0,8.042625 0.168,7.875 0.375,7.875 C0.582,7.875 0.75,8.042625 0.75,8.25 L17.25,8.25 L17.25,4.5 L0.75,4.5 L0.75,6 C0.75,6.207375 0.582,6.375 0.375,6.375 C0.168,6.375 0,6.207375 0,6 L0,4.125 C0,3.917625 0.168,3.75 0.375,3.75 L17.625,3.75 C17.832,3.75 18,3.917625 18,4.125 L18,8.625 C18,8.832375 17.832,9 17.625,9 L17.625,9 Z" id="Shape" fill="#fff"></path>
                <path d="M9,4.5 L5.25,4.5 C4.348875,4.5 2.625,3.623625 2.625,2.25 C2.625,0.86025 3.987375,0 5.25,0 C7.774125,0 9.375,2.900625 9.375,4.125 C9.375,4.332375 9.207,4.5 9,4.5 L9,4.5 Z M5.25,0.75 C4.348125,0.75 3.375,1.323375 3.375,2.25 C3.375,3.101625 4.624875,3.75 5.25,3.75 L8.57475,3.75 C8.30625,2.627625 6.98625,0.75 5.25,0.75 L5.25,0.75 Z" id="Shape" fill="#fff"></path>
                <path d="M12.75,4.5 L9,4.5 C8.793,4.5 8.625,4.332375 8.625,4.125 C8.625,2.900625 10.22625,0 12.75,0 C14.012625,0 15.375,0.86025 15.375,2.25 C15.375,3.623625 13.65075,4.5 12.75,4.5 L12.75,4.5 Z M9.42525,3.75 L12.75,3.75 C13.375125,3.75 14.625,3.101625 14.625,2.25 C14.625,1.323375 13.6515,0.75 12.75,0.75 C11.01375,0.75 9.69375,2.627625 9.42525,3.75 L9.42525,3.75 Z" id="Shape" fill="#fff"></path>
                <path d="M6.5,4.5 L6.5,17.5" id="Line" stroke="#fff" stroke-linecap="square"></path>
                <path d="M11.5,4.5 L11.5,17.5" id="Line-Copy" stroke="#fff" stroke-linecap="square"></path>
            </g>
            <g id="Group-2" transform="translate(0.000000, 9.000000)" stroke="#fff" stroke-linecap="square">
                <path d="M1.5,0.5 L1.5,8.5" id="Line"></path>
                <path d="M1.5,8.5 L16.5,8.5" id="Line"></path>
                <path d="M16.5,8.5 L16.5,1.5" id="Line" fill="url(#linearGradient-1)"></path>
            </g>
        </g>
    </g>
</svg>