<svg width="72px" height="84px" viewBox="0 0 52 64" version="1.1" xmlns="http://www.w3.org/2000/svg" xmlns:xlink="http://www.w3.org/1999/xlink" xmlns:sketch="http://www.bohemiancoding.com/sketch/ns">
    <g id="Page-1" stroke="none" stroke-width="1" fill="none" fill-rule="evenodd" sketch:type="MSPage">
        <g id="Group" sketch:type="MSLayerGroup" fill="#000000">
            <path d="M37.338,63.66 L25.999,27.772 L14.662,63.659 L12.755,63.055 L25.046,24.15 C25.177,23.734 25.563,23.451 26,23.451 C26.436,23.451 26.822,23.734 26.953,24.15 L39.245,63.058 L37.338,63.66 L37.338,63.66 Z" id="Shape" sketch:type="MSShapeGroup"></path>
            <path d="M15.533,60.219 L14.384,58.582 L31.07,46.858 L20.964,38.758 L22.215,37.197 L33.36,46.13 C33.606,46.326 33.745,46.627 33.734,46.942 C33.724,47.256 33.567,47.548 33.31,47.729 L15.533,60.219 L15.533,60.219 Z" id="Shape" sketch:type="MSShapeGroup"></path>
            <path d="M36.461,60.214 L18.971,47.725 C18.716,47.543 18.561,47.252 18.553,46.939 C18.544,46.626 18.683,46.328 18.927,46.131 L30.073,37.198 L31.323,38.759 L21.209,46.865 L37.624,58.587 L36.461,60.214 L36.461,60.214 Z" id="Shape" sketch:type="MSShapeGroup"></path>
            <path d="M26,25.451 C22.517,25.451 19.683,22.617 19.683,19.134 C19.683,15.651 22.517,12.817 26,12.817 C29.482,12.817 32.316,15.651 32.316,19.134 C32.316,22.617 29.482,25.451 26,25.451 L26,25.451 Z M26,14.817 C23.62,14.817 21.683,16.754 21.683,19.134 C21.683,21.514 23.62,23.451 26,23.451 C28.38,23.451 30.316,21.514 30.316,19.134 C30.316,16.754 28.38,14.817 26,14.817 L26,14.817 Z" id="Shape" sketch:type="MSShapeGroup"></path>
            <g id="Shape" sketch:type="MSShapeGroup">
                <path d="M16.178,29.02 C13.537,26.379 12.082,22.868 12.082,19.133 C12.082,15.399 13.536,11.887 16.177,9.247 L17.591,10.661 C15.328,12.924 14.082,15.932 14.082,19.133 C14.082,22.334 15.329,25.342 17.592,27.606 L16.178,29.02 L16.178,29.02 Z"></path>
                <path d="M12.053,33.146 C4.327,25.418 4.326,12.846 12.051,5.121 L13.465,6.535 C6.52,13.481 6.521,24.784 13.467,31.732 L12.053,33.146 L12.053,33.146 Z"></path>
                <path d="M7.664,37.534 C2.748,32.619 0.041,26.084 0.041,19.134 C0.041,12.183 2.748,5.648 7.664,0.733 L9.078,2.147 C4.54,6.685 2.041,12.717 2.041,19.134 C2.041,25.551 4.54,31.583 9.078,36.12 L7.664,37.534 L7.664,37.534 Z"></path>
                <path d="M35.82,29.02 L34.406,27.606 C36.67,25.342 37.918,22.333 37.918,19.133 C37.918,15.933 36.672,12.924 34.409,10.661 L35.823,9.247 C38.464,11.888 39.918,15.398 39.918,19.133 C39.917,22.868 38.462,26.379 35.82,29.02 L35.82,29.02 Z"></path>
                <path d="M39.945,33.146 L38.531,31.731 C45.477,24.784 45.479,13.481 38.534,6.534 L39.948,5.12 C47.673,12.847 47.672,25.419 39.945,33.146 L39.945,33.146 Z"></path>
                <path d="M44.335,37.534 L42.921,36.12 C47.458,31.582 49.957,25.55 49.957,19.134 C49.957,12.717 47.458,6.685 42.921,2.147 L44.335,0.733 C49.25,5.648 51.957,12.183 51.957,19.134 C51.957,26.084 49.25,32.619 44.335,37.534 L44.335,37.534 Z"></path>
            </g>
        </g>
    </g>
</svg>