<svg width="15px" height="14px" viewBox="0 0 84 83" version="1.1" xmlns="http://www.w3.org/2000/svg" xmlns:xlink="http://www.w3.org/1999/xlink" xmlns:sketch="http://www.bohemiancoding.com/sketch/ns">
    <g id="Page-1" stroke="none" stroke-width="1" fill="none" fill-rule="evenodd" sketch:type="MSPage">
        <g id="noun_241113_cc" sketch:type="MSLayerGroup" fill="#000000">
            <path d="M79,18 L57.071,18 C60.858,16.25 64.123,13.962 65.267,11.201 C65.85,9.793 66.385,6.987 63.414,4.016 C61.1,1.702 58.58,0.528 55.925,0.528 C49.809,0.528 44.678,6.865 42,12.711 C39.321,6.865 34.19,0.528 28.075,0.528 C25.42,0.528 22.901,1.702 20.586,4.016 C17.615,6.987 18.15,9.792 18.733,11.201 C19.877,13.962 23.142,16.25 26.929,18 L5,18 C2.243,18 0,20.243 0,23 L0,36 C0,38.414 1.721,40.435 4,40.898 L4,78 C4,80.757 6.243,83 9,83 L75,83 C77.757,83 80,80.757 80,78 L80,40.898 C82.279,40.434 84,38.414 84,36 L84,23 C84,20.243 81.757,18 79,18 L79,18 Z M55.925,4.528 C57.48,4.528 59.048,5.307 60.586,6.844 C62.11,8.368 61.732,9.281 61.571,9.67 C60.016,13.424 50.015,16.877 44.367,17.774 C45.749,12.799 50.814,4.528 55.925,4.528 L55.925,4.528 Z M22.429,9.671 C22.268,9.281 21.89,8.369 23.414,6.845 C24.952,5.308 26.519,4.529 28.075,4.529 C33.186,4.529 38.251,12.8 39.633,17.775 C33.984,16.878 23.984,13.425 22.429,9.671 L22.429,9.671 Z M4,23 C4,22.458 4.458,22 5,22 L40,22 L40,37 L5,37 C4.458,37 4,36.542 4,36 L4,23 L4,23 Z M9,79 C8.458,79 8,78.542 8,78 L8,41 L40,41 L40,79 L9,79 L9,79 Z M75,79 L44,79 L44,41 L76,41 L76,78 C76,78.542 75.542,79 75,79 L75,79 Z M80,36 C80,36.542 79.542,37 79,37 L44,37 L44,22 L79,22 C79.542,22 80,22.458 80,23 L80,36 L80,36 Z" id="Shape" sketch:type="MSShapeGroup"></path>
        </g>
    </g>
</svg>