<svg width="10px" height="17px" viewBox="0 0 18 25" version="1.1" xmlns="http://www.w3.org/2000/svg" xmlns:xlink="http://www.w3.org/1999/xlink" xmlns:sketch="http://www.bohemiancoding.com/sketch/ns">
    <g id="PROFSTYLE" stroke="none" stroke-width="1" fill="none" fill-rule="evenodd" sketch:type="MSPage">
        <g id="Estel-2" sketch:type="MSArtboardGroup" transform="translate(-564.000000, -392.000000)" fill="#000000">
            <g sketch:type="MSLayerGroup" transform="translate(20.000000, 319.000000)">
                <path d="M544.481707,84.9390244 L546.934959,84.9390244 L546.934959,73.9166667 L553.25813,73.9166667 C554.432933,73.9166667 555.50406,74.0491179 556.471545,74.3140244 C557.439029,74.5789309 558.268289,74.9820434 558.95935,75.523374 C559.65041,76.0647046 560.191732,76.7499959 560.583333,77.5792683 C560.974934,78.4085407 561.170732,79.3990457 561.170732,80.550813 C561.170732,81.7025803 560.963417,82.7046028 560.54878,83.5569106 C560.134144,84.4092184 559.569787,85.1175446 558.855691,85.6819106 C558.141595,86.2462765 557.300818,86.6666653 556.333333,86.9430894 C555.365849,87.2195136 554.317756,87.3577236 553.189024,87.3577236 L549.699187,87.3577236 L549.699187,90.847561 L555.262195,90.847561 L555.262195,93.1280488 L549.699187,93.1280488 L549.699187,98 L546.934959,98 L546.934959,93.1280488 L544.481707,93.1280488 L544.481707,90.847561 L546.934959,90.847561 L546.934959,87.3577236 L544.481707,87.3577236 L544.481707,84.9390244 Z M553.25813,84.9390244 C554.847569,84.9390244 556.097218,84.5762231 557.007114,83.8506098 C557.91701,83.1249964 558.371951,82.0250751 558.371951,80.550813 C558.371951,79.0765509 557.91701,78.0054234 557.007114,77.3373984 C556.097218,76.6693734 554.847569,76.3353659 553.25813,76.3353659 L549.699187,76.3353659 L549.699187,84.9390244 L553.25813,84.9390244 Z" id="₽" sketch:type="MSShapeGroup"></path>
            </g>
        </g>
    </g>
</svg>