<svg width="12px" height="17px" viewBox="0 0 12 17" version="1.1" xmlns="http://www.w3.org/2000/svg" xmlns:xlink="http://www.w3.org/1999/xlink" xmlns:sketch="http://www.bohemiancoding.com/sketch/ns">
    <g id="Page-1" stroke="none" stroke-width="1" fill="none" fill-rule="evenodd" sketch:type="MSPage">
        <g id="noun_205134_cc" sketch:type="MSLayerGroup" fill="#000000">
            <path d="M1,17 L1,12 L0,12 L0,11 L1,11 L1,8 L0,8 L0,7 L1,7 L1,0 L8,0 C10.21,0 12,1.79 12,4 C12,6.21 10.21,8 8,8 L2,8 L2,11 L8,11 L8,12 L2,12 L2,17 L1,17 L1,17 Z M2,7 L8,7 C9.66,7 11,5.66 11,4 C11,2.34 9.66,1 8,1 L2,1 L2,7 L2,7 Z" id="Shape" sketch:type="MSShapeGroup"></path>
        </g>
    </g>
</svg>