<svg width="12px" height="12px" viewBox="0 0 47 47" version="1.1" xmlns="http://www.w3.org/2000/svg" xmlns:xlink="http://www.w3.org/1999/xlink" xmlns:sketch="http://www.bohemiancoding.com/sketch/ns">
    <g id="Page-1" stroke="none" stroke-width="1" fill="none" fill-rule="evenodd" sketch:type="MSPage">
        <path d="M40.441,45.966 L29.506,35.031 C26.509,36.992 22.927,38.142 19.062,38.142 C8.523,38.142 0,29.6 0,19.061 C0,8.542 8.522,0 19.062,0 C29.583,0 38.122,8.542 38.122,19.061 C38.122,22.74 37.086,26.168 35.294,29.072 L46.307,40.083 C46.89,40.65 46.401,42.064 45.231,43.231 L43.591,44.875 C42.421,46.042 41.007,46.531 40.441,45.966 L40.441,45.966 Z M31.788,19.061 C31.788,12.028 26.093,6.334 19.061,6.334 C12.028,6.334 6.316,12.028 6.316,19.061 C6.316,26.094 12.028,31.806 19.061,31.806 C26.093,31.806 31.788,26.095 31.788,19.061 L31.788,19.061 Z" id="Shape" fill="rgba(0,0,0, .25)" sketch:type="MSShapeGroup"></path>
    </g>
</svg>