<?xml version="1.0" encoding="UTF-8" standalone="no"?>
<svg width="90px" height="73px" viewBox="0 0 90 73" version="1.1" xmlns="http://www.w3.org/2000/svg" xmlns:xlink="http://www.w3.org/1999/xlink">
    <!-- Generator: Sketch 3.8.3 (29802) - http://www.bohemiancoding.com/sketch -->
    <title>noun_75051_cc</title>
    <desc>Created with Sketch.</desc>
    <defs></defs>
    <g id="Page-1" stroke="none" stroke-width="1" fill="none" fill-rule="evenodd" fill-opacity="0.199898098">
        <g id="noun_75051_cc" fill="#546776">
            <g id="Group">
                <path d="M0,27.5 L25,27.5 L25,54.3 L25,57.3 L36.4,50.7 L48.8,72.2 L58,66.9 L58,63.9 L46.9,44.7 L57,38.9 L57,35.9 L42.5,27.5 L90,27.5 L90,0 L0,0 L0,27.5 L0,27.5 Z M52,35.9 L44.3,40.3 L42.1,41.6 L43.4,43.8 L54.5,63 L49.7,65.8 L38.6,46.5 L37.4,44.3 L35.2,45.5 L27.5,50 L27.5,21.7 L52,35.9 L52,35.9 Z M2.5,2.5 L87.5,2.5 L87.5,22.5 L33.8,22.5 L25,17.4 L25,20.4 L25,22.5 L2.5,22.5 L2.5,2.5 L2.5,2.5 Z" id="Shape"></path>
                <polygon id="Shape" points="23.2 4.5 20.9 6.8 15 12.7 10.6 8.3 9.3 7 5.7 10.5 15 19.8 26.8 8"></polygon>
                <rect id="Rectangle-path" x="40" y="6.3" width="40" height="2.5"></rect>
                <rect id="Rectangle-path" x="30" y="11.3" width="50" height="2.5"></rect>
                <rect id="Rectangle-path" x="30" y="16.3" width="45" height="2.5"></rect>
            </g>
        </g>
    </g>
</svg>