<?xml version="1.0" encoding="utf-8"?>

<svg version="1.1" id="Layer_1" width="15px" height="15px"
	 xmlns="http://www.w3.org/2000/svg" xmlns:xlink="http://www.w3.org/1999/xlink" x="0px" y="0px" viewBox="0 0 15 15"
	 style="enable-background:new 0 0 15 15;" xml:space="preserve">
<style type="text/css">
	.st0{fill:#fff;}
</style>
<path class="st0" d="M13.7,7.5c0-0.6,0.3-1.1,0.9-1.4C14.9,6,15.1,5.6,15,5.3c-0.2-0.5-0.4-1.1-0.6-1.5c-0.2-0.3-0.5-0.4-0.8-0.3
	c-0.5,0.2-1.2,0.1-1.6-0.4c-0.4-0.4-0.5-1.1-0.4-1.6c0.1-0.3,0-0.7-0.3-0.8c-0.5-0.3-1-0.5-1.5-0.6C9.4-0.1,9,0.1,8.9,0.4
	C8.6,0.9,8.1,1.3,7.5,1.3S6.4,1,6.1,0.4C6,0.1,5.6-0.1,5.3,0C4.8,0.2,4.2,0.4,3.8,0.7C3.5,0.8,3.3,1.2,3.4,1.5
	C3.6,2,3.5,2.7,3.1,3.1S2,3.6,1.5,3.4c-0.3-0.1-0.7,0-0.8,0.3C0.4,4.2,0.2,4.8,0,5.3C-0.1,5.6,0.1,6,0.4,6.1
	c0.5,0.3,0.9,0.8,0.9,1.4S1,8.6,0.4,8.9C0.1,9-0.1,9.4,0,9.7c0.2,0.5,0.4,1.1,0.6,1.5c0.2,0.3,0.5,0.4,0.8,0.3
	c0.5-0.2,1.2-0.1,1.6,0.4c0.4,0.4,0.5,1.1,0.4,1.6c-0.1,0.3,0,0.7,0.3,0.8c0.5,0.3,1,0.5,1.5,0.6C5.5,15,5.9,14.8,6,14.5
	c0.3-0.5,0.8-0.9,1.4-0.9s1.1,0.3,1.4,0.9C9,14.9,9.4,15.1,9.7,15c0.5-0.2,1.1-0.4,1.5-0.6c0.3-0.2,0.4-0.5,0.3-0.8
	c-0.2-0.5-0.1-1.2,0.4-1.6c0.4-0.4,1.1-0.5,1.6-0.4c0.3,0.1,0.7,0,0.8-0.3c0.3-0.5,0.5-1,0.6-1.5C15,9.5,14.8,9.1,14.5,9
	C14.1,8.6,13.7,8.1,13.7,7.5z M8.2,11.6C5.3,12,3,9.7,3.4,6.8c0.3-1.7,1.7-3.2,3.4-3.4c2.8-0.4,5.2,2,4.8,4.8
	C11.3,9.9,9.9,11.3,8.2,11.6z"/>
</svg>
