<?xml version="1.0" encoding="utf-8"?>
<!-- Generator: Adobe Illustrator 18.0.0, SVG Export Plug-In . SVG Version: 6.00 Build 0)  -->
<!DOCTYPE svg PUBLIC "-//W3C//DTD SVG 1.1//EN" "http://www.w3.org/Graphics/SVG/1.1/DTD/svg11.dtd">
<svg version="1.1" id="Layer_1" xmlns="http://www.w3.org/2000/svg" xmlns:xlink="http://www.w3.org/1999/xlink" x="0px" y="0px"
	 viewBox="0 0 74 91" enable-background="new 0 0 74 91" xml:space="preserve">
<g>
	<defs>
		<rect id="SVGID_1_" y="0" width="74" height="91"/>
	</defs>
	<clipPath id="SVGID_2_">
		<use xlink:href="#SVGID_1_"  overflow="visible"/>
	</clipPath>
	<path clip-path="url(#SVGID_2_)" d="M36.9,91C13.8,91,0,71.1,0,51.9c0-1.2,1-2.2,2.2-2.2s2.2,1,2.2,2.2c0,17,12.1,34.6,32.4,34.6
		s32.5-17.6,32.5-34.6c0-1.2,1-2.2,2.2-2.2s2.2,1,2.2,2.2C73.8,71.1,60,91,36.9,91"/>
	<path clip-path="url(#SVGID_2_)" d="M25.3,53c-0.6,0-1.2-0.2-1.6-0.7s-0.7-1-0.7-1.6c0-0.6,0.2-1.2,0.7-1.6c0.8-0.8,2.3-0.8,3.2,0
		c0.4,0.4,0.7,1,0.7,1.6c0,0.6-0.2,1.2-0.7,1.6C26.5,52.8,25.9,53,25.3,53"/>
	<path clip-path="url(#SVGID_2_)" d="M17.8,51.7c-0.6,0-1.2-0.2-1.6-0.7c-0.4-0.4-0.7-1-0.7-1.6c0-0.6,0.2-1.2,0.7-1.6
		c0.8-0.8,2.3-0.8,3.2,0c0.4,0.4,0.7,1,0.7,1.6c0,0.6-0.2,1.2-0.7,1.6C19,51.5,18.4,51.7,17.8,51.7"/>
	<path clip-path="url(#SVGID_2_)" d="M32.7,47c-0.6,0-1.2-0.2-1.6-0.7c-0.4-0.4-0.7-1-0.7-1.6c0-0.6,0.2-1.2,0.7-1.6
		c0.8-0.8,2.3-0.8,3.2,0c0.4,0.4,0.7,1,0.7,1.6c0,0.6-0.2,1.2-0.7,1.6C33.9,46.8,33.3,47,32.7,47"/>
	<path clip-path="url(#SVGID_2_)" d="M52.1,46.4c-0.3,0-0.7-0.1-1-0.3c-1.1-0.6-1.5-1.9-1-3l12.6-24.3c0.6-1.1,1.9-1.5,3-1
		c1.1,0.6,1.5,1.9,1,3L54.1,45.1C53.7,45.9,52.9,46.4,52.1,46.4"/>
	<path clip-path="url(#SVGID_2_)" d="M37.1,61.6c-1.2,0-2.1-0.9-2.2-2.1c-0.3-3.3,0.8-7.1,3-10.4c1.9-3,4.5-5.3,7.3-6.5
		c3.1-1.4,6.2-1.3,8.5,0.2c4.6,3,4.8,10.4,0.6,17c-0.7,1-2.1,1.3-3.1,0.7c-1-0.7-1.3-2.1-0.7-3.1c3-4.6,2.8-9.4,0.7-10.7
		c-1.4-0.9-3.2-0.3-4.2,0.1c-2,0.9-3.9,2.6-5.4,4.9c-1.6,2.5-2.4,5.3-2.2,7.6c0.1,1.2-0.8,2.3-2,2.4C37.2,61.6,37.2,61.6,37.1,61.6"
		/>
	<path clip-path="url(#SVGID_2_)" d="M29.7,29.2h-0.4c-1.2-0.2-2-1.4-1.8-2.6c0.3-1.6,1-3,1.8-4.6c0.4-0.7,0.8-1.5,1.2-2.4
		c1.2-2.7-2.1-5.2-2.1-5.3c-1-0.7-1.2-2.2-0.5-3.1c0.7-0.9,2.2-1.2,3.1-0.5c2.2,1.6,5.7,6,3.5,10.7c-0.4,1-0.9,1.8-1.2,2.6
		c-0.7,1.4-1.2,2.4-1.4,3.4S30.7,29.2,29.7,29.2"/>
	<path clip-path="url(#SVGID_2_)" d="M39.7,23.9c-0.4,0-0.7-0.1-1.1-0.3c-1.1-0.6-1.5-2-0.9-3c2.1-3.8,0.7-5.9-1.4-9.1
		c-1.7-2.5-3.5-5.4-3.4-9.3c0-1.2,1-2.3,2.3-2.2c1.2,0,2.2,1.1,2.2,2.3c-0.1,2.5,1.2,4.5,2.7,6.7c2.2,3.4,5,7.6,1.6,13.7
		C41.3,23.5,40.5,23.9,39.7,23.9"/>
	<path clip-path="url(#SVGID_2_)" d="M36.9,72.6C16.2,72.6,0,63.6,0,52c0-11.5,16.2-20.5,36.9-20.5c4.3,0,8.6,0.4,12.6,1.2
		c1.2,0.2,2,1.4,1.8,2.6s-1.4,2-2.6,1.8C45,36.4,41,36,37,36C19.4,36,4.6,43.3,4.6,52S19.5,68.1,37,68.1c17.6,0,32.4-7.4,32.4-16.1
		c0-3.5-2.6-7.1-7.2-9.9c-1.1-0.7-1.4-2-0.7-3.1c0.7-1.1,2-1.4,3.1-0.7c6,3.7,9.4,8.6,9.4,13.8C73.8,63.6,57.6,72.6,36.9,72.6"/>
</g>
</svg>
