<svg width="80px" height="80px" viewBox="0 0 160 160" version="1.1" xmlns="http://www.w3.org/2000/svg" xmlns:xlink="http://www.w3.org/1999/xlink">
    <g id="PROFSTYLE" stroke="none" stroke-width="1" fill="none" fill-rule="evenodd">
        <g id="Bucket-1" transform="translate(-239.000000, -99.000000)" fill="#FFFFFF">
            <g id="Group" transform="translate(0.000000, -1.000000)">
                <g id="Rectangle-10-+-Смотреть-все-категор-2">
                    <g id="Imported-Layers" transform="translate(239.000000, 100.000000)">
                        <path d="M159.608,80.0983529 C159.604235,124.060235 124.023059,159.602353 80.0127059,159.608 C35.8051765,159.613647 0.360470588,124.020235 0.392,79.6541176 C0.423058824,35.6964706 36.128,0.350117647 80.4569412,0.393411765 C124.174118,0.436235294 159.612235,36.1228235 159.608,80.0983529 L159.608,80.0983529 Z M151.137412,80.0752941 C151.041882,40.5044706 119.211765,8.74070588 79.776,8.86258824 C40.2442353,8.98494118 8.76188235,40.9030588 8.86258824,80.7581176 C8.96047059,119.566588 41.1505882,151.261647 80.3411765,151.137412 C119.418353,151.013647 151.231529,119.080941 151.137412,80.0752941 L151.137412,80.0752941 Z" id="Fill-1"></path>
                        <path d="M69.4004706,84.2818824 C78.3901176,75.2889412 87.2,66.4752941 96.0098824,57.6621176 C99.1694118,54.5016471 102.312471,51.3251765 105.493176,48.1863529 C109.205647,44.5232941 114.088941,44.448 117.872,48 C119.414118,49.4484706 120.902118,50.9567059 122.371294,52.48 C126.180235,56.4296471 126.221176,61.2809412 122.323765,65.2014118 C111.103529,76.4875294 99.8268235,87.7171765 88.5698824,98.9665882 C84.3552941,103.177882 80.1402353,107.389176 75.9129412,111.587294 C71.8131765,115.658353 66.9872941,115.647059 62.8734118,111.549176 C54.6536471,103.36 46.4381176,95.1665882 38.2357647,86.96 C33.6112941,82.3336471 33.616,77.7392941 38.216,73.0592941 C39.4249412,71.8291765 40.6329412,70.5971765 41.8771765,69.4032941 C45.8432941,65.5976471 50.7242353,65.6051765 54.6028235,69.4597647 C59.4941176,74.3204706 64.3482353,79.2183529 69.4004706,84.2818824" id="Fill-2"></path>
                    </g>
                </g>
            </g>
        </g>
    </g>
</svg>