<svg width="300px" height="100%" viewBox="0 0 453 344" version="1.1" xmlns="http://www.w3.org/2000/svg" xmlns:xlink="http://www.w3.org/1999/xlink">
    <defs>
        <polyline id="path-1" points="15 8.38095238 6.61904762 8.38095238 6.61904762 5.68434189e-14"></polyline>
        <mask id="mask-2" maskContentUnits="userSpaceOnUse" maskUnits="objectBoundingBox" x="0" y="0" width="8.38095238" height="8.38095238" fill="white">
            <use xlink:href="#path-1"></use>
        </mask>
        <polyline id="path-3" points="-1.15107923e-13 6 8.8 6 8.8 14.8"></polyline>
        <mask id="mask-4" maskContentUnits="userSpaceOnUse" maskUnits="objectBoundingBox" x="0" y="0" width="8.8" height="8.8" fill="white">
            <use xlink:href="#path-3"></use>
        </mask>
        <polyline id="path-5" points="15 8.38095238 6.61904762 8.38095238 6.61904762 1.42108547e-14"></polyline>
        <mask id="mask-6" maskContentUnits="userSpaceOnUse" maskUnits="objectBoundingBox" x="0" y="0" width="8.38095238" height="8.38095238" fill="white">
            <use xlink:href="#path-5"></use>
        </mask>
        <polyline id="path-7" points="-5.82645043e-14 6 8.8 6 8.8 14.8"></polyline>
        <mask id="mask-8" maskContentUnits="userSpaceOnUse" maskUnits="objectBoundingBox" x="0" y="0" width="8.8" height="8.8" fill="white">
            <use xlink:href="#path-7"></use>
        </mask>
    </defs>
    <g id="PROFSTYLE" stroke="none" stroke-width="1" fill="none" fill-rule="evenodd">
        <g id="Bucket-1" transform="translate(-111.000000, -596.000000)">
            <g id="Group" transform="translate(0.000000, -1.000000)">
                <g id="Group-2" transform="translate(105.000000, 599.000000)">
                    <g id="240-баллов-будут-нач-+-Imported-Layers-2" transform="translate(195.000000, 3.000000)" fill="#FD9024">
                        <g id="Imported-Layers-2" transform="translate(0.294471, 0.336957)">
                            <path d="M30.9576623,28.0041421 L30.9576623,57.3711488 L0.124939904,57.3711488 L0.124939904,28.0041421 L30.9576623,28.0041421" id="Fill-1"></path>
                            <path d="M38.3942308,57.3900729 L38.3942308,27.9861968 L69.2828125,27.9861968 L69.2828125,57.3900729 L38.3942308,57.3900729" id="Fill-2"></path>
                            <path d="M0.103455529,63.2134884 L30.9616286,63.2134884 L30.9616286,92.5729907 L0.103455529,92.5729907 L0.103455529,63.2134884" id="Fill-3"></path>
                            <path d="M38.4471154,63.2089205 L69.29372,63.2089205 L69.29372,92.5667914 L38.4471154,92.5667914 L38.4471154,63.2089205" id="Fill-4"></path>
                            <path d="M34.8033654,25.3443212 C35.6511719,21.7128435 36.4698918,18.0741877 37.3553786,14.4515194 C38.1750901,11.0967257 39.4006911,7.90115585 41.6651442,5.20642319 C45.2414663,0.951101309 49.9554688,-0.464946609 55.297476,0.479629133 C60.2540865,1.35633898 62.6702524,4.85958933 63.6304387,9.49372034 C64.5317909,13.8446418 62.7489183,17.9224682 58.8916466,20.4928889 C55.8276442,22.5350649 52.2718149,23.066246 48.7629207,23.7259807 C44.5476863,24.5185108 40.3426983,25.4170813 36.0920974,25.9502201 C34.1875901,26.1887295 32.1621094,25.7694619 30.2281851,25.4399208 C25.5670673,24.6454331 20.9181791,23.7745962 16.2831731,22.8437242 C13.205619,22.2254267 10.3905048,20.9741494 8.2546274,18.6203776 C4.9179387,14.9428946 4.8171274,10.7521758 6.68428486,6.44073408 C8.52830529,2.18280197 11.9952224,0.198703498 16.6249399,0.216322528 C22.2131911,0.237856897 26.4436298,2.64774858 29.2580829,7.43653552 C31.5945913,11.4122369 32.3567909,15.8822499 33.383744,20.2677568 C33.779387,21.9565734 34.1284255,23.6564835 34.4986178,25.3511731 C34.6000901,25.3488891 34.701893,25.3466052 34.8033654,25.3443212 L34.8033654,25.3443212 Z M41.1640625,20.1861872 C45.6344651,19.2383487 49.723768,18.4494077 53.7638221,17.4637209 C54.8866286,17.1896471 55.9750601,16.4646567 56.8853365,15.7165005 C58.9551082,14.0146328 59.2092849,11.7620072 58.4424579,9.34102208 C57.7533053,7.16605079 56.4301983,5.54085847 54.015024,5.26319561 C50.1508113,4.81880454 46.961869,6.03778035 44.7912861,9.36549296 C42.7248197,12.5336555 42.0740084,16.1605653 41.1640625,20.1861872 L41.1640625,20.1861872 Z M27.8417668,20.1548645 C27.9997596,19.9910728 28.1580829,19.8269548 28.3160757,19.6631631 C27.379357,16.7840832 26.5593149,13.8609557 25.4675781,11.0406059 C24.6270433,8.86954991 23.146274,7.05413732 20.9158654,6.08867977 C17.1865084,4.47523347 11.979357,4.33852285 10.7309495,10.0288168 C10.0156851,13.2889898 11.3824219,16.0962885 15.0585637,17.2193384 C19.2271935,18.4928027 23.5729868,19.201153 27.8417668,20.1548645 L27.8417668,20.1548645 Z" id="Fill-5"></path>
                        </g>
                    </g>
                    <g id="Rectangle-309-+-Rectangle-311" opacity="0.4" transform="translate(11.000000, 335.500000) rotate(-315.000000) translate(-11.000000, -335.500000) translate(3.000000, 328.000000)" stroke="#FD9024" stroke-width="4">
                        <use id="Rectangle-309" mask="url(#mask-2)" xlink:href="#path-1"></use>
                        <use id="Rectangle-310" mask="url(#mask-4)" xlink:href="#path-3"></use>
                    </g>
                    <circle id="Oval-3" stroke="#FD9024" stroke-width="3" opacity="0.2" cx="437" cy="266" r="20"></circle>
                    <circle id="Oval-2" stroke="#FD9024" stroke-width="3" cx="43" cy="96" r="8"></circle>
                    <circle id="Oval-2" stroke="#FD9024" stroke-width="3" opacity="0.5" cx="324" cy="13" r="13"></circle>
                    <rect id="Rectangle-307" fill="#FD9024" opacity="0.2" transform="translate(413.500000, 114.500000) rotate(-45.000000) translate(-413.500000, -114.500000) " x="402" y="103" width="23" height="23"></rect>
                    <rect id="Rectangle-307" fill="#FD9024" opacity="0.1" transform="translate(97.500000, 181.500000) rotate(-45.000000) translate(-97.500000, -181.500000) " x="92" y="176" width="11" height="11"></rect>
                    <g id="Rectangle-309-+-Rectangle-310" opacity="0.4" transform="translate(100.646447, 25.146447) rotate(-315.000000) translate(-100.646447, -25.146447) translate(93.146447, 17.646447)" stroke="#FD9024" stroke-width="4">
                        <use id="Rectangle-309" mask="url(#mask-6)" xlink:href="#path-5"></use>
                        <use id="Rectangle-310" mask="url(#mask-8)" xlink:href="#path-7"></use>
                    </g>
                </g>
            </g>
        </g>
    </g>
</svg>